<?xml version="1.0" encoding="UTF-8" standalone="no"?>
<!-- Created with Inkscape (http://www.inkscape.org/) -->

<svg
   xmlns:dc="http://purl.org/dc/elements/1.1/"
   xmlns:cc="http://creativecommons.org/ns#"
   xmlns:rdf="http://www.w3.org/1999/02/22-rdf-syntax-ns#"
   xmlns:svg="http://www.w3.org/2000/svg"
   xmlns="http://www.w3.org/2000/svg"
   version="1.1"
   width="519.98523"
   height="522.60449"
   id="svg6800">
  <metadata
     id="metadata6806">
    <rdf:RDF>
      <cc:Work
         rdf:about="">
        <dc:format>image/svg+xml</dc:format>
        <dc:type
           rdf:resource="http://purl.org/dc/dcmitype/StillImage" />
        <dc:title></dc:title>
      </cc:Work>
    </rdf:RDF>
  </metadata>
  <defs
     id="defs6804" />
  <g
     transform="translate(-1686.509,-489.49024)"
     id="g6810">
    <path
       d="m 494.8125,645.31689 c 0.72187,-0.28887 1.58438,-0.25335 1.91667,0.0789 0.33229,0.33229 -0.25834,0.56864 -1.3125,0.52522 -1.16495,-0.048 -1.4019,-0.28494 -0.60417,-0.60416 z m 32,0 c 0.72187,-0.28887 1.58438,-0.25335 1.91667,0.0789 0.33229,0.33229 -0.25834,0.56864 -1.3125,0.52522 -1.16495,-0.048 -1.4019,-0.28494 -0.60417,-0.60416 z M 335.87244,578.25 c -1.24387,-1.58606 -1.2085,-1.62143 0.37756,-0.37756 1.66575,1.30637 2.19548,2.12756 1.37244,2.12756 -0.20765,0 -0.99515,-0.7875 -1.75,-1.75 z m -18,-18 c -1.24387,-1.58606 -1.2085,-1.62143 0.37756,-0.37756 1.66575,1.30637 2.19548,2.12756 1.37244,2.12756 -0.20765,0 -0.99515,-0.7875 -1.75,-1.75 z m 193.88922,-99.95726 c 1.24391,-0.23919 3.04391,-0.23011 4,0.0202 0.95609,0.25029 -0.0617,0.446 -2.26166,0.4349 -2.2,-0.0111 -2.98225,-0.21589 -1.73834,-0.45508 z m 169.00625,-2.01747 c 1.79735,-0.22256 4.49735,-0.21797 6,0.0102 1.50265,0.22818 0.0321,0.41027 -3.26791,0.40466 -3.3,-0.006 -4.52944,-0.1923 -2.73209,-0.41486 z M 379,441.5 c 1.86578,-1.925 3.61733,-3.5 3.89233,-3.5 0.275,0 -1.02655,1.575 -2.89233,3.5 -1.86578,1.925 -3.61733,3.5 -3.89233,3.5 -0.275,0 1.02655,-1.575 2.89233,-3.5 z m -92.07569,-5.25 -2.42431,-2.75 2.75,2.42431 c 2.57029,2.26589 3.20859,3.07569 2.42431,3.07569 -0.17912,0 -1.41662,-1.2375 -2.75,-2.75 z M 739,435.5 c 1.86578,-1.925 3.61733,-3.5 3.89233,-3.5 0.275,0 -1.02655,1.575 -2.89233,3.5 -1.86578,1.925 -3.61733,3.5 -3.89233,3.5 -0.275,0 1.02655,-1.575 2.89233,-3.5 z M 483.43709,407.75 480.5,404.5 l 3.25,2.93709 c 1.7875,1.6154 3.25,3.0779 3.25,3.25 0,0.77256 -0.82513,0.0924 -3.56291,-2.93709 z m 288.64186,-7.33333 c 0.048,-1.16495 0.28494,-1.4019 0.60416,-0.60417 0.28887,0.72187 0.25335,1.58438 -0.0789,1.91667 -0.33229,0.33229 -0.56864,-0.25834 -0.52522,-1.3125 z M 752.5,397 l -8,-0.63324 7.69098,-0.18338 c 4.25924,-0.10156 7.96676,0.26282 8.30902,0.81662 0.33992,0.55 0.47898,0.91748 0.30902,0.81662 C 760.63906,397.71576 756.9,397.34828 752.5,397 z M 432.47323,318 c 0,-38.225 0.12435,-53.8625 0.27634,-34.75 0.15199,19.1125 0.15199,50.3875 0,69.5 -0.15199,19.1125 -0.27634,3.475 -0.27634,-34.75 z m -131.27828,61.5 c 0.0204,-1.65 0.2445,-2.20394 0.49804,-1.23097 0.25354,0.97297 0.23687,2.32297 -0.0371,3 -0.27393,0.67703 -0.48137,-0.11903 -0.46099,-1.76903 z m 81,0 c 0.0204,-1.65 0.2445,-2.20394 0.49804,-1.23097 0.25354,0.97297 0.23687,2.32297 -0.0371,3 -0.27393,0.67703 -0.48137,-0.11903 -0.46099,-1.76903 z m 40,-5 c 0.0204,-1.65 0.2445,-2.20394 0.49804,-1.23097 0.25354,0.97297 0.23687,2.32297 -0.0371,3 -0.27393,0.67703 -0.48137,-0.11903 -0.46099,-1.76903 z m -159.116,-5.08333 c 0.048,-1.16495 0.28494,-1.4019 0.60416,-0.60417 0.28887,0.72187 0.25335,1.58438 -0.0789,1.91667 -0.33229,0.33229 -0.56864,-0.25834 -0.52522,-1.3125 z m 509,-3 c 0.048,-1.16495 0.28494,-1.4019 0.60416,-0.60417 0.28887,0.72187 0.25335,1.58438 -0.0789,1.91667 -0.33229,0.33229 -0.56864,-0.25834 -0.52522,-1.3125 z m -521,-9 c 0.048,-1.16495 0.28494,-1.4019 0.60416,-0.60417 0.28887,0.72187 0.25335,1.58438 -0.0789,1.91667 -0.3323,0.33229 -0.56864,-0.25834 -0.52522,-1.3125 z M 654,352.62244 c 0,-0.20765 0.7875,-0.99515 1.75,-1.75 1.58606,-1.24387 1.62143,-1.2085 0.37756,0.37756 C 654.82119,352.91575 654,353.44548 654,352.62244 z m -342,-1 c 0,-0.20765 0.7875,-0.99515 1.75,-1.75 1.58606,-1.24387 1.62143,-1.2085 0.37756,0.37756 C 312.82119,351.91575 312,352.44548 312,351.62244 z m 370.25,-12.31177 c 0.9625,-0.25152 2.5375,-0.25152 3.5,0 0.9625,0.25153 0.175,0.45733 -1.75,0.45733 -1.925,0 -2.7125,-0.2058 -1.75,-0.45733 z M 623,328.62244 c 0,-0.20765 0.7875,-0.99515 1.75,-1.75 1.58606,-1.24387 1.62143,-1.2085 0.37756,0.37756 C 623.82119,328.91575 623,329.44548 623,328.62244 z M 398.94617,324.25 395.5,320.5 l 3.75,3.44617 c 2.0625,1.89539 3.75,3.58289 3.75,3.75 0,0.76362 -0.84622,0.0442 -4.05383,-3.44617 z m 72.15252,-1.5 c 0.23761,-0.1375 2.45011,-2.05 4.91666,-4.25 l 4.48465,-4 -3.95295,4.25 c -2.17412,2.3375 -4.38662,4.25 -4.91666,4.25 -0.53005,0 -0.76931,-0.1125 -0.5317,-0.25 z m 41.71381,-20.43311 c 0.72187,-0.28887 1.58438,-0.25335 1.91667,0.0789 0.33229,0.33229 -0.25834,0.56864 -1.3125,0.52522 -1.16495,-0.048 -1.4019,-0.28494 -0.60417,-0.60416 z m -175.0848,-2.03862 c 1.77523,-0.22091 4.92523,-0.22454 7,-0.008 2.07476,0.21648 0.6223,0.39722 -3.2277,0.40166 -3.85,0.004 -5.54754,-0.17268 -3.7723,-0.39359 z M 704.40499,206.75 702.5,204.5 l 2.25,1.90499 c 1.2375,1.04774 2.25,2.06024 2.25,2.25 0,0.80025 -0.80479,0.20945 -2.59501,-1.90499 z M 320,204.68709 c 0,-0.1721 1.4625,-1.6346 3.25,-3.25 l 3.25,-2.93709 -2.93709,3.25 C 320.82513,204.77946 320,205.45965 320,204.68709 z m 8,-8.06465 c 0,-0.20765 0.7875,-0.99515 1.75,-1.75 1.58606,-1.24387 1.62143,-1.2085 0.37756,0.37756 C 328.82119,196.91575 328,197.44548 328,196.62244 z M 333.5,191 c 0.99549,-1.1 2.03498,-2 2.30998,-2 0.275,0 -0.31449,0.9 -1.30998,2 -0.99549,1.1 -2.03498,2 -2.30998,2 -0.275,0 0.31449,-0.9 1.30998,-2 z m 352.37244,-2.75 c -1.24387,-1.58606 -1.2085,-1.62143 0.37756,-0.37756 1.66575,1.30637 2.19548,2.12756 1.37244,2.12756 -0.20765,0 -0.99515,-0.7875 -1.75,-1.75 z M 501.75,121.33772 c 0.6875,-0.27741 1.8125,-0.27741 2.5,0 0.6875,0.27741 0.125,0.50439 -1.25,0.50439 -1.375,0 -1.9375,-0.22698 -1.25,-0.50439 z m 17,0 c 0.6875,-0.27741 1.8125,-0.27741 2.5,0 0.6875,0.27741 0.125,0.50439 -1.25,0.50439 -1.375,0 -1.9375,-0.22698 -1.25,-0.50439 z"
       id="path6824"
       style="fill:#d1d1d1" />
    <path
       d="m 497.8125,645.31689 c 0.72187,-0.28887 1.58438,-0.25335 1.91667,0.0789 0.33229,0.33229 -0.25834,0.56864 -1.3125,0.52522 -1.16495,-0.048 -1.4019,-0.28494 -0.60417,-0.60416 z M 332.87244,575.25 c -1.24387,-1.58606 -1.2085,-1.62143 0.37756,-0.37756 0.9625,0.75485 1.75,1.54235 1.75,1.75 0,0.82304 -0.82119,0.29331 -2.12756,-1.37244 z M 454.43709,435.75 451.5,432.5 l 3.25,2.93709 c 3.02946,2.73778 3.70965,3.56291 2.93709,3.56291 -0.1721,0 -1.6346,-1.4625 -3.25,-3.25 z m 200.9679,-27 -1.90499,-2.25 2.25,1.90499 c 1.2375,1.04774 2.25,2.06024 2.25,2.25 0,0.80025 -0.80479,0.20945 -2.59501,-1.90499 z M 712.5,409 c 0.99549,-1.1 2.03498,-2 2.30998,-2 0.275,0 -0.31449,0.9 -1.30998,2 -0.99549,1.1 -2.03498,2 -2.30998,2 -0.275,0 0.31449,-0.9 1.30998,-2 z m -172,-1 c 0.99549,-1.1 2.03498,-2 2.30998,-2 0.275,0 -0.31449,0.9 -1.30998,2 -0.99549,1.1 -2.03498,2 -2.30998,2 -0.275,0 0.31449,-0.9 1.30998,-2 z m 187.28919,-11.74141 c 3.45905,-0.19583 8.85905,-0.19422 12,0.004 3.14094,0.19781 0.31081,0.35803 -6.28919,0.35606 -6.6,-0.002 -9.16987,-0.16382 -5.71081,-0.35965 z M 483.5,351 c 0.99549,-1.1 2.03498,-2 2.30998,-2 0.275,0 -0.31449,0.9 -1.30998,2 -0.99549,1.1 -2.03498,2 -2.30998,2 -0.275,0 0.31449,-0.9 1.30998,-2 z M 738.43709,323.75 735.5,320.5 l 3.25,2.93709 c 3.02946,2.73778 3.70965,3.56291 2.93709,3.56291 -0.1721,0 -1.6346,-1.4625 -3.25,-3.25 z M 471.23696,285.77159 471,249.04319 l -19.25,-0.2945 -19.25,-0.2945 19.28138,-0.22709 c 14.71232,-0.17329 19.39549,0.0702 19.7629,1.0277 0.26483,0.69014 0.35734,17.45264 0.20558,37.25 l -0.27593,35.9952 -0.23697,-36.72841 z m 38.57554,16.5453 c 0.72187,-0.28887 1.58438,-0.25335 1.91667,0.0789 0.33229,0.33229 -0.25834,0.56864 -1.3125,0.52522 -1.16495,-0.048 -1.4019,-0.28494 -0.60417,-0.60416 z m 6,0 c 0.72187,-0.28887 1.58438,-0.25335 1.91667,0.0789 0.33229,0.33229 -0.25834,0.56864 -1.3125,0.52522 -1.16495,-0.048 -1.4019,-0.28494 -0.60417,-0.60416 z M 688.87244,191.25 c -1.24387,-1.58606 -1.2085,-1.62143 0.37756,-0.37756 1.66575,1.30637 2.19548,2.12756 1.37244,2.12756 -0.20765,0 -0.99515,-0.7875 -1.75,-1.75 z M 507.7277,121.27827 c 1.77523,-0.22091 4.92523,-0.22454 7,-0.008 2.07476,0.21648 0.6223,0.39722 -3.2277,0.40166 -3.85,0.004 -5.54754,-0.17268 -3.7723,-0.39359 z"
       id="path6822"
       style="fill:#afafaf" />
    <path
       d="m 500.8125,645.31689 c 0.72187,-0.28887 1.58438,-0.25335 1.91667,0.0789 0.33229,0.33229 -0.25834,0.56864 -1.3125,0.52522 -1.16495,-0.048 -1.4019,-0.28494 -0.60417,-0.60416 z m 19.9375,0.0208 c 0.6875,-0.27741 1.8125,-0.27741 2.5,0 0.6875,0.27741 0.125,0.50439 -1.25,0.50439 -1.375,0 -1.9375,-0.22698 -1.25,-0.50439 z M 326,568.5 c -2.42903,-2.475 -4.19142,-4.5 -3.91642,-4.5 0.275,0 2.48739,2.025 4.91642,4.5 2.42903,2.475 4.19142,4.5 3.91642,4.5 -0.275,0 -2.48739,-2.025 -4.91642,-4.5 z m 57.42877,-109.82502 c -0.27965,-0.72876 -0.35892,-5.56626 -0.17615,-10.75 l 0.3323,-9.42498 0.20754,10.20431 0.20754,10.20431 6.75,0.34983 6.75,0.34983 -6.78138,0.19586 c -4.85236,0.14015 -6.92602,-0.18105 -7.28985,-1.12916 z M 337.75,458.33772 c 0.6875,-0.27741 1.8125,-0.27741 2.5,0 0.6875,0.27741 0.125,0.50439 -1.25,0.50439 -1.375,0 -1.9375,-0.22698 -1.25,-0.50439 z m 5,0 c 0.6875,-0.27741 1.8125,-0.27741 2.5,0 0.6875,0.27741 0.125,0.50439 -1.25,0.50439 -1.375,0 -1.9375,-0.22698 -1.25,-0.50439 z M 569,437.5 c 1.29175,-1.375 2.57363,-2.5 2.84863,-2.5 0.275,0 -0.55688,1.125 -1.84863,2.5 -1.29175,1.375 -2.57363,2.5 -2.84863,2.5 -0.275,0 0.55688,-1.125 1.84863,-2.5 z m 57.92431,-2.25 -2.42431,-2.75 2.75,2.42431 c 1.5125,1.33338 2.75,2.57088 2.75,2.75 0,0.78428 -0.8098,0.14598 -3.07569,-2.42431 z M 682.75,420.33772 c 0.6875,-0.27741 1.8125,-0.27741 2.5,0 0.6875,0.27741 0.125,0.50439 -1.25,0.50439 -1.375,0 -1.9375,-0.22698 -1.25,-0.50439 z m 89.32895,-24.92105 c 0.048,-1.16495 0.28494,-1.4019 0.60416,-0.60417 0.28887,0.72187 0.25335,1.58438 -0.0789,1.91667 -0.33229,0.33229 -0.56864,-0.25834 -0.52522,-1.3125 z M 592.28601,381.5 c 0.008,-2.75 0.20172,-3.75631 0.43157,-2.23625 0.22986,1.52006 0.22371,3.77006 -0.0136,5 -0.23736,1.22994 -0.42542,-0.0138 -0.41792,-2.76375 z m -120.03383,-2 c 0.0111,-2.2 0.21589,-2.98225 0.45508,-1.73834 0.23919,1.24391 0.23011,3.04391 -0.0202,4 -0.25029,0.95609 -0.446,-0.0617 -0.4349,-2.26166 z M 262.15789,379 c 0,-1.375 0.22698,-1.9375 0.50439,-1.25 0.27741,0.6875 0.27741,1.8125 0,2.5 -0.27741,0.6875 -0.50439,0.125 -0.50439,-1.25 z m 509.92106,-7.58333 c 0.048,-1.16495 0.28494,-1.4019 0.60416,-0.60417 0.28887,0.72187 0.25335,1.58438 -0.0789,1.91667 -0.33229,0.33229 -0.56864,-0.25834 -0.52522,-1.3125 z M 540.40499,350.75 538.5,348.5 l 2.25,1.90499 c 1.2375,1.04774 2.25,2.06024 2.25,2.25 0,0.80025 -0.80479,0.20945 -2.59501,-1.90499 z M 283,325.68709 c 0,-0.1721 1.4625,-1.6346 3.25,-3.25 l 3.25,-2.93709 -2.93709,3.25 C 283.82513,325.77946 283,326.45965 283,325.68709 z m 396.26903,-25.38008 c 0.97297,-0.25354 2.32297,-0.23687 3,0.0371 0.67703,0.27393 -0.11903,0.48137 -1.76903,0.46099 -1.65,-0.0204 -2.20394,-0.2445 -1.23097,-0.49804 z m 5.48097,0.0307 c 0.6875,-0.27741 1.8125,-0.27741 2.5,0 0.6875,0.27741 0.125,0.50439 -1.25,0.50439 -1.375,0 -1.9375,-0.22698 -1.25,-0.50439 z M 695.46241,197.75 690.5,192.5 l 5.25,4.96241 c 4.87839,4.61116 5.7086,5.53759 4.96241,5.53759 -0.15818,0 -2.52068,-2.3625 -5.25,-5.25 z"
       id="path6820"
       style="fill:#8f8f8f" />
    <path
       d="m 504.26903,645.30701 c 0.97297,-0.25354 2.32297,-0.23687 3,0.0371 0.67703,0.27393 -0.11903,0.48137 -1.76903,0.46099 -1.65,-0.0204 -2.20394,-0.2445 -1.23097,-0.49804 z m 12,0 c 0.97297,-0.25354 2.32297,-0.23687 3,0.0371 0.67703,0.27393 -0.11903,0.48137 -1.76903,0.46099 -1.65,-0.0204 -2.20394,-0.2445 -1.23097,-0.49804 z M 689,575.62244 c 0,-0.20765 0.7875,-0.99515 1.75,-1.75 1.58606,-1.24387 1.62143,-1.2085 0.37756,0.37756 C 689.82119,575.91575 689,576.44548 689,575.62244 z m 11,-11 c 0,-0.20765 0.7875,-0.99515 1.75,-1.75 1.58606,-1.24387 1.62143,-1.2085 0.37756,0.37756 C 700.82119,564.91575 700,565.44548 700,564.62244 z M 402.25,459.26101 c 3.1625,-0.19845 8.3375,-0.19845 11.5,0 3.1625,0.19845 0.575,0.36082 -5.75,0.36082 -6.325,0 -8.9125,-0.16237 -5.75,-0.36082 z M 772.15789,392 c 0,-1.375 0.22698,-1.9375 0.50439,-1.25 0.27741,0.6875 0.27741,1.8125 0,2.5 -0.27741,0.6875 -0.50439,0.125 -0.50439,-1.25 z m -510.07894,-9.58333 c 0.048,-1.16495 0.28494,-1.4019 0.60416,-0.60417 0.28887,0.72187 0.25335,1.58438 -0.0789,1.91667 -0.33229,0.33229 -0.56864,-0.25834 -0.52522,-1.3125 z m 342,0 c 0.048,-1.16495 0.28494,-1.4019 0.60416,-0.60417 0.28887,0.72187 0.25335,1.58438 -0.0789,1.91667 -0.33229,0.33229 -0.56864,-0.25834 -0.52522,-1.3125 z M 604.15789,377 c 0,-1.375 0.22698,-1.9375 0.50439,-1.25 0.27741,0.6875 0.27741,1.8125 0,2.5 -0.27741,0.6875 -0.50439,0.125 -0.50439,-1.25 z m -342.07894,-1.58333 c 0.048,-1.16495 0.28494,-1.4019 0.60416,-0.60417 0.28887,0.72187 0.25335,1.58438 -0.0789,1.91667 -0.33229,0.33229 -0.56864,-0.25834 -0.52522,-1.3125 z M 772.15789,375 c 0,-1.375 0.22698,-1.9375 0.50439,-1.25 0.27741,0.6875 0.27741,1.8125 0,2.5 -0.27741,0.6875 -0.50439,0.125 -0.50439,-1.25 z M 568.92431,325.25 566.5,322.5 l 2.75,2.42431 c 1.5125,1.33338 2.75,2.57088 2.75,2.75 0,0.78428 -0.8098,0.14598 -3.07569,-2.42431 z"
       id="path6818"
       style="fill:#6e6e6e" />
    <path
       d="m 509.76166,645.29274 c 1.24391,-0.23919 3.04391,-0.23011 4,0.0202 0.95609,0.25029 -0.0617,0.446 -2.26166,0.4349 -2.2,-0.0111 -2.98225,-0.21589 -1.73834,-0.45508 z M 695.5,569 c 2.14824,-2.2 4.1309,-4 4.4059,-4 0.275,0 -1.25766,1.8 -3.4059,4 -2.14824,2.2 -4.1309,4 -4.4059,4 -0.275,0 1.25766,-1.8 3.4059,-4 z M 419.75,459.33772 c 0.6875,-0.27741 1.8125,-0.27741 2.5,0 0.6875,0.27741 0.125,0.50439 -1.25,0.50439 -1.375,0 -1.9375,-0.22698 -1.25,-0.50439 z m -79,-40 c 0.6875,-0.27741 1.8125,-0.27741 2.5,0 0.6875,0.27741 0.125,0.50439 -1.25,0.50439 -1.375,0 -1.9375,-0.22698 -1.25,-0.50439 z m 171.0625,-0.0208 c 0.72187,-0.28887 1.58438,-0.25335 1.91667,0.0789 0.33229,0.33229 -0.25834,0.56864 -1.3125,0.52522 -1.16495,-0.048 -1.4019,-0.28494 -0.60417,-0.60416 z M 312.87244,407.25 c -1.24387,-1.58606 -1.2085,-1.62143 0.37756,-0.37756 1.66575,1.30637 2.19548,2.12756 1.37244,2.12756 -0.20765,0 -0.99515,-0.7875 -1.75,-1.75 z m 459.4557,-23.75 c 0.004,-3.85 0.18518,-5.30246 0.40166,-3.2277 0.21647,2.07477 0.21284,5.22477 -0.008,7 -0.22091,1.77524 -0.39803,0.0777 -0.39359,-3.7723 z m -220.13319,-4 c 0.0204,-1.65 0.2445,-2.20394 0.49804,-1.23097 0.25354,0.97297 0.23687,2.32297 -0.0371,3 -0.27393,0.67703 -0.48137,-0.11903 -0.46099,-1.76903 z m 199.57296,-15.22473 c 1.79735,-0.22256 4.49735,-0.21797 6,0.0102 1.50265,0.22818 0.0321,0.41027 -3.26791,0.40466 -3.3,-0.006 -4.52944,-0.1923 -2.73209,-0.41486 z M 627,323.5 c 1.29175,-1.375 2.57363,-2.5 2.84863,-2.5 0.275,0 -0.55688,1.125 -1.84863,2.5 -1.29175,1.375 -2.57363,2.5 -2.84863,2.5 -0.275,0 0.55688,-1.125 1.84863,-2.5 z"
       id="path6816"
       style="fill:#4f4f4f" />
    <path
       d="m 335.87244,577.25 c -1.24387,-1.58606 -1.2085,-1.62143 0.37756,-0.37756 1.66575,1.30637 2.19548,2.12756 1.37244,2.12756 -0.20765,0 -0.99515,-0.7875 -1.75,-1.75 z m -18,-18 c -1.24387,-1.58606 -1.2085,-1.62143 0.37756,-0.37756 0.9625,0.75485 1.75,1.54235 1.75,1.75 0,0.82304 -0.82119,0.29331 -2.12756,-1.37244 z M 423.45804,417 c 0,-23.375 0.13089,-32.9375 0.29087,-21.25 0.15998,11.6875 0.15998,30.8125 0,42.5 -0.15998,11.6875 -0.29087,2.125 -0.29087,-21.25 z M 379,442.5 c 1.86578,-1.925 3.61733,-3.5 3.89233,-3.5 0.275,0 -1.02655,1.575 -2.89233,3.5 -1.86578,1.925 -3.61733,3.5 -3.89233,3.5 -0.275,0 1.02655,-1.575 2.89233,-3.5 z m -91.12756,-4.25 c -1.24387,-1.58606 -1.2085,-1.62143 0.37756,-0.37756 1.66575,1.30637 2.19548,2.12756 1.37244,2.12756 -0.20765,0 -0.99515,-0.7875 -1.75,-1.75 z M 740,435.5 c 1.86578,-1.925 3.61733,-3.5 3.89233,-3.5 0.275,0 -1.02655,1.575 -2.89233,3.5 -1.86578,1.925 -3.61733,3.5 -3.89233,3.5 -0.275,0 1.02655,-1.575 2.89233,-3.5 z M 282.40499,432.75 280.5,430.5 l 2.25,1.90499 c 2.11444,1.79022 2.70524,2.59501 1.90499,2.59501 -0.18976,0 -1.20226,-1.0125 -2.25,-2.25 z m 201.51932,-25.5 -2.42431,-2.75 2.75,2.42431 c 2.57029,2.26589 3.20859,3.07569 2.42431,3.07569 -0.17912,0 -1.41662,-1.2375 -2.75,-2.75 z M 262.07895,387.41667 c 0.048,-1.16495 0.28494,-1.4019 0.60416,-0.60417 0.28887,0.72187 0.25335,1.58438 -0.0789,1.91667 -0.33229,0.33229 -0.56864,-0.25834 -0.52522,-1.3125 z m 342,0 c 0.048,-1.16495 0.28494,-1.4019 0.60416,-0.60417 0.28887,0.72187 0.25335,1.58438 -0.0789,1.91667 -0.33229,0.33229 -0.56864,-0.25834 -0.52522,-1.3125 z M 381.15789,382 c 0,-1.375 0.22698,-1.9375 0.50439,-1.25 0.27741,0.6875 0.27741,1.8125 0,2.5 -0.27741,0.6875 -0.50439,0.125 -0.50439,-1.25 z m 50.3146,-66 c 0,-37.125 0.12468,-52.3125 0.27706,-33.75 0.15238,18.5625 0.15238,48.9375 0,67.5 -0.15238,18.5625 -0.27706,3.375 -0.27706,-33.75 z M 644.232,380 c 0,-1.925 0.2058,-2.7125 0.45733,-1.75 0.25152,0.9625 0.25152,2.5375 0,3.5 -0.25153,0.9625 -0.45733,0.175 -0.45733,-1.75 z m -263.15305,-3.58333 c 0.048,-1.16495 0.28494,-1.4019 0.60416,-0.60417 0.28887,0.72187 0.25335,1.58438 -0.0789,1.91667 -0.33229,0.33229 -0.56864,-0.25834 -0.52522,-1.3125 z m 223,-5 c 0.048,-1.16495 0.28494,-1.4019 0.60416,-0.60417 0.28887,0.72187 0.25335,1.58438 -0.0789,1.91667 -0.33229,0.33229 -0.56864,-0.25834 -0.52522,-1.3125 z M 720.65134,364.25 c -0.25669,-0.4125 3.87926,-0.63054 9.19098,-0.48453 17.8199,0.48983 19.76451,0.86317 5.4667,1.04955 -7.80504,0.10174 -14.401,-0.15252 -14.65768,-0.56502 z M 312,352.62244 c 0,-0.20765 0.7875,-0.99515 1.75,-1.75 1.58606,-1.24387 1.62143,-1.2085 0.37756,0.37756 C 312.82119,352.91575 312,353.44548 312,352.62244 z m 367.8125,-12.30555 c 0.72187,-0.28887 1.58438,-0.25335 1.91667,0.0789 0.33229,0.33229 -0.25834,0.56864 -1.3125,0.52522 -1.16495,-0.048 -1.4019,-0.28494 -0.60417,-0.60416 z m 7,0 c 0.72187,-0.28887 1.58438,-0.25335 1.91667,0.0789 0.33229,0.33229 -0.25834,0.56864 -1.3125,0.52522 -1.16495,-0.048 -1.4019,-0.28494 -0.60417,-0.60416 z M 340.75,339.33772 c 0.6875,-0.27741 1.8125,-0.27741 2.5,0 0.6875,0.27741 0.125,0.50439 -1.25,0.50439 -1.375,0 -1.9375,-0.22698 -1.25,-0.50439 z m 170.51903,-0.0307 c 0.97297,-0.25354 2.32297,-0.23687 3,0.0371 0.67703,0.27393 -0.11903,0.48137 -1.76903,0.46099 -1.65,-0.0204 -2.20394,-0.2445 -1.23097,-0.49804 z M 399.45295,323.75 395.5,319.5 l 4.25,3.95295 c 3.95246,3.6762 4.70953,4.54705 3.95295,4.54705 -0.16338,0 -2.07588,-1.9125 -4.25,-4.25 z M 472,321.62244 c 0,-0.20765 0.7875,-0.99515 1.75,-1.75 1.58606,-1.24387 1.62143,-1.2085 0.37756,0.37756 C 472.82119,321.91575 472,322.44548 472,321.62244 z m 158,-1 c 0,-0.20765 0.7875,-0.99515 1.75,-1.75 1.58606,-1.24387 1.62143,-1.2085 0.37756,0.37756 C 630.82119,320.91575 630,321.44548 630,320.62244 z M 340.26903,299.30701 c 0.97297,-0.25354 2.32297,-0.23687 3,0.0371 0.67703,0.27393 -0.11903,0.48137 -1.76903,0.46099 -1.65,-0.0204 -2.20394,-0.2445 -1.23097,-0.49804 z M 320,205.72497 c 0,-0.15126 3.4875,-3.63876 7.75,-7.75 l 7.75,-7.47497 -7.47497,7.75 C 321.08244,205.44803 320,206.45627 320,205.72497 z M 685.87244,189.25 c -1.24387,-1.58606 -1.2085,-1.62143 0.37756,-0.37756 1.66575,1.30637 2.19548,2.12756 1.37244,2.12756 -0.20765,0 -0.99515,-0.7875 -1.75,-1.75 z M 341,185.62244 c 0,-0.20765 0.7875,-0.99515 1.75,-1.75 1.58606,-1.24387 1.62143,-1.2085 0.37756,0.37756 C 341.82119,185.91575 341,186.44548 341,185.62244 z m 151.75,-63.28472 c 0.6875,-0.27741 1.8125,-0.27741 2.5,0 0.6875,0.27741 0.125,0.50439 -1.25,0.50439 -1.375,0 -1.9375,-0.22698 -1.25,-0.50439 z m 35,0 c 0.6875,-0.27741 1.8125,-0.27741 2.5,0 0.6875,0.27741 0.125,0.50439 -1.25,0.50439 -1.375,0 -1.9375,-0.22698 -1.25,-0.50439 z"
       id="path6814"
       style="fill:#2e2e2e" />
    <path
       d="m 1915.0201,1010.7799 c -31.3071,-4.4185 -56.0982,-11.89022 -82.5,-24.86434 -27.3072,-13.41904 -48.2743,-28.36496 -69.5323,-49.5644 -40.9068,-40.79429 -65.9194,-91.23155 -74.6356,-150.5005 -2.4631,-16.74815 -2.4563,-53.33219 0.013,-70 8.949,-60.40835 34.5882,-111.02811 77.2731,-152.56122 13.1228,-12.76874 23.438,-21.25033 36.3466,-29.88591 59.0951,-39.53308 130.2503,-52.9493 201.0352,-37.90489 13.6965,2.91101 39.7796,11.8172 53.3378,18.21246 73.1033,34.48183 125.9236,99.61134 144.0667,177.63956 5.0495,21.71678 6.0697,31.71756 6.0697,59.5 0,20.04383 -0.4103,28.63446 -1.7913,37.5 -4.7807,30.69136 -13.4721,57.45944 -27.2106,83.80374 -12.9242,24.78289 -26.7636,43.52239 -47.4487,64.24892 -39.1864,39.26477 -86.1497,63.40196 -142.0925,73.02978 -16.5242,2.8439 -57.0248,3.5918 -72.9311,1.3468 z m 50.1859,-183.88096 c 14.182,-3.00573 26.0426,-9.30466 37.4136,-19.86966 24.2478,-22.52907 31.9329,-57.03933 19.575,-87.90178 -4.231,-10.56633 -9.3539,-18.15612 -18.1343,-26.86645 -14.1832,-14.07005 -31.3102,-21.66627 -51.0659,-22.64884 -17.1028,-0.85063 -26.1748,2.12775 -38.8194,12.74464 l -7.1549,6.00753 0,-36.52756 0,-36.52757 -20.25,0.2707 -20.25,0.27071 0,70.5 c 0,76.52032 0.02,76.84898 5.6242,90.92604 5.3398,13.41368 17.2853,28.35895 29.0195,36.30687 9.3123,6.30754 21.9492,11.72135 31.9315,13.67983 7.045,1.3822 24.8213,1.18044 32.1107,-0.36446 z m -28.2566,-41.85793 c -10.9345,-3.08635 -22.0958,-13.17385 -25.9378,-23.44245 -10.1113,-27.02488 8.4542,-54.2479 36.9958,-54.2479 22.9019,0 40.3042,18.97381 38.8065,42.31098 -1.2946,20.1721 -17.1138,35.61791 -37.2484,36.36925 -4.5173,0.16857 -10.0498,-0.26553 -12.6161,-0.98988 z m -78.4833,-4.19035 -0.054,-46 -2.7625,-9 c -6.9607,-22.67733 -21.5652,-39.76714 -43.1295,-50.46889 -21.0436,-10.44334 -47.3911,-11.03989 -68.1219,-1.5424 -30.4591,13.95433 -48.9319,44.15762 -47.0761,76.9704 2.3283,41.16891 34.0682,72.92334 75.198,75.23246 15.9946,0.89798 26.5847,-2.69631 39.0159,-13.24201 l 6.4841,-5.50065 0,10.04625 0,10.04625 20.25,-0.2707 20.25,-0.27071 -0.054,-46 z m -93.5371,3.60362 c -14.287,-4.57105 -24.2946,-16.37157 -27.0238,-31.86518 -2.88,-16.35005 7.0799,-34.645 22.8968,-42.05838 5.0641,-2.37353 6.919,-2.68006 16.2181,-2.68006 9.28,0 11.1593,0.30911 16.1751,2.66041 9.9767,4.67691 17.4983,13.08367 21.3588,23.87236 2.3711,6.62663 2.1119,19.16596 -0.5429,26.26164 -7.3214,19.56824 -29.1864,30.17472 -49.0821,23.80921 z m 371.0911,40.27229 c 16.2417,-3.29246 35.5967,-15.45713 45.5688,-28.64021 5.2183,-6.89852 11.5027,-19.39759 13.8195,-27.4857 l 1.5038,-5.25 -20.4204,0 -20.4204,0 -1.6713,3.25 c -6.1528,11.96472 -20.9206,20.75 -34.88,20.75 -11.919,0 -26.2301,-7.34778 -32.3724,-16.62104 -5.6402,-8.51512 -7.3658,-14.73287 -6.9328,-24.9807 0.3281,-7.76422 0.8551,-10.0574 3.5862,-15.605 7.6128,-15.46389 24.6386,-24.36983 41.4593,-21.68677 12.4058,1.97884 22.2981,8.5622 27.9717,18.61516 l 2.9789,5.27835 20.0353,0 20.0354,0 -0.5479,-3.37625 c -0.9316,-5.74086 -6.5799,-18.65427 -11.1755,-25.54979 -34.1724,-51.27491 -109.4661,-46.8249 -137.1281,8.10456 -10.0373,19.93139 -10.9691,44.10557 -2.5138,65.2215 3.9571,9.88248 8.9068,17.52148 16.4823,25.43768 19.4289,20.30268 46.0241,28.33532 74.6214,22.53821 z"
       id="path6812"
       style="fill:#000000" />
    <path
       d="m 133.13615,326.8337 c 0,-7.17034 -0.15876,-10.85766 -0.46748,-10.85766 -0.25712,0 -1.17323,0.70575 -2.03581,1.56833 -0.86258,0.86258 -1.56833,1.77869 -1.56833,2.03581 0,0.25711 -0.21036,0.46748 -0.46748,0.46748 -0.49385,0 -3.60414,2.94296 -3.60414,3.41026 0,0.45596 -1.25986,1.56617 -1.77729,1.56617 -0.2666,0 -0.48472,0.20358 -0.48472,0.4524 0,0.24882 -0.36222,0.4524 -0.80493,0.4524 -0.44271,0 -1.0984,0.40716 -1.45708,0.90481 -0.35868,0.49764 -0.98585,0.9048 -1.39371,0.9048 -0.40786,0 -1.12377,0.50895 -1.59092,1.13101 -0.46714,0.62205 -1.20819,1.131 -1.64677,1.131 -0.43859,0 -0.79743,0.20358 -0.79743,0.4524 0,0.24883 -0.40716,0.45241 -0.9048,0.45241 -0.49765,0 -0.90481,0.20358 -0.90481,0.4524 0,0.24882 -0.50895,0.4524 -1.131,0.4524 -0.62206,0 -1.13101,0.20358 -1.13101,0.4524 0,0.24882 -0.50895,0.45241 -1.131,0.45241 -0.70374,0 -1.13101,0.25636 -1.13101,0.6786 0,0.4524 -0.4524,0.6786 -1.35721,0.6786 -0.74646,0 -1.3572,0.20358 -1.3572,0.4524 0,0.24883 -0.61075,0.45241 -1.35721,0.45241 -0.74646,0 -1.35721,0.1875 -1.35721,0.41666 0,0.47267 -4.263813,0.86896 -13.006564,1.20886 -4.047164,0.15735 -5.99433,0.0781 -5.99433,-0.24383 0,-0.30246 -1.654775,-0.47689 -4.524023,-0.47689 -2.714414,0 -4.524023,-0.18096 -4.524023,-0.4524 0,-0.24882 -0.712534,-0.4524 -1.583408,-0.4524 -0.870874,0 -1.583408,-0.20358 -1.583408,-0.45241 0,-0.24882 -0.916115,-0.4524 -2.03581,-0.4524 -1.508006,0 -2.035811,-0.17593 -2.035811,-0.6786 0,-0.4524 -0.452402,-0.6786 -1.357207,-0.6786 -0.746463,0 -1.357206,-0.20359 -1.357206,-0.45241 0,-0.24882 -0.508953,-0.4524 -1.131006,-0.4524 -0.622053,0 -1.131006,-0.20358 -1.131006,-0.4524 0,-0.24882 -0.610743,-0.4524 -1.357207,-0.4524 -0.746464,0 -1.357207,-0.20358 -1.357207,-0.45241 0,-0.24882 -0.508952,-0.4524 -1.131005,-0.4524 -0.622053,0 -1.131006,-0.20358 -1.131006,-0.4524 0,-0.24882 -0.385383,-0.4524 -0.856402,-0.4524 -0.471023,0 -0.973585,-0.30537 -1.116808,-0.67861 -0.143223,-0.37323 -0.673956,-0.6786 -1.179407,-0.6786 -0.505452,0 -0.919004,-0.20358 -0.919004,-0.4524 0,-0.24882 -0.407162,-0.4524 -0.904804,-0.4524 -0.497643,0 -0.904805,-0.20359 -0.904805,-0.45241 0,-0.24882 -0.407162,-0.4524 -0.904804,-0.4524 -0.497643,0 -0.904805,-0.20358 -0.904805,-0.4524 0,-0.24882 -0.305372,-0.4524 -0.678603,-0.4524 -0.373232,0 -0.678604,-0.20358 -0.678604,-0.45241 0,-0.24882 -0.407162,-0.4524 -0.904804,-0.4524 -0.497643,0 -0.904805,-0.23203 -0.904805,-0.51563 0,-0.62497 -1.36006,-1.7121 -2.166826,-1.73199 -0.32088,-0.008 -1.381619,-0.82871 -2.357197,-1.824 -0.975578,-0.99528 -1.968809,-1.80961 -2.207181,-1.80961 -0.606984,0 -4.126451,-3.44245 -4.126451,-4.03615 0,-0.26833 -0.208938,-0.48787 -0.464308,-0.48787 -0.604779,0 -4.512117,-3.90734 -4.512117,-4.51212 0,-0.25537 -0.305372,-0.46431 -0.678604,-0.46431 -0.373232,0 -0.678603,-0.32548 -0.678603,-0.72329 0,-0.39781 -0.610743,-1.29382 -1.357207,-1.99112 -0.746464,-0.6973 -1.363682,-1.54241 -1.371595,-1.87802 -0.01954,-0.82853 -1.09735,-2.1936 -1.731995,-2.1936 -0.283595,0 -0.515628,-0.40716 -0.515628,-0.9048 0,-0.49765 -0.203581,-0.90481 -0.452403,-0.90481 -0.248821,0 -0.452402,-0.30537 -0.452402,-0.6786 0,-0.37323 -0.203581,-0.67861 -0.452402,-0.67861 -0.248821,0 -0.452402,-0.40716 -0.452402,-0.9048 0,-0.49764 -0.203581,-0.90481 -0.452403,-0.90481 -0.248821,0 -0.452402,-0.50895 -0.452402,-1.131 0,-0.70374 -0.256361,-1.13101 -0.678603,-1.13101 -0.377002,0 -0.678604,-0.40213 -0.678604,-0.9048 0,-0.49764 -0.203581,-0.90481 -0.452402,-0.90481 -0.248821,0 -0.452402,-0.40716 -0.452402,-0.9048 0,-0.49764 -0.203582,-0.90481 -0.452403,-0.90481 -0.248821,0 -0.452402,-0.50895 -0.452402,-1.131 0,-0.62205 -0.203581,-1.13101 -0.452402,-1.13101 -0.248822,0 -0.452403,-0.61074 -0.452403,-1.3572 0,-0.74647 -0.203581,-1.35721 -0.452402,-1.35721 -0.248821,0 -0.452402,-0.50895 -0.452402,-1.13101 0,-0.70373 -0.256362,-1.131 -0.678604,-1.131 -0.473945,0 -0.678603,-0.47754 -0.678603,-1.58341 0,-0.87087 -0.203581,-1.58341 -0.452402,-1.58341 -0.248822,0 -0.452403,-0.81432 -0.452403,-1.80961 0,-0.99528 -0.203581,-1.80961 -0.452402,-1.80961 -0.248821,0 -0.452402,-1.11969 -0.452402,-2.48821 0,-1.36852 -0.188623,-2.48821 -0.419163,-2.48821 -0.449681,0 -0.823243,-4.32198 -1.202399,-13.91137 -0.160121,-4.04967 -0.0823,-5.99433 0.239873,-5.99433 0.294504,0 0.476884,-1.38414 0.476884,-3.61922 0,-2.11121 0.188501,-3.61922 0.452402,-3.61922 0.255202,0 0.452403,-1.2818 0.452403,-2.94061 0,-1.65881 0.197201,-2.94062 0.452402,-2.94062 0.248821,0 0.452402,-0.71253 0.452402,-1.58341 0,-0.87087 0.203581,-1.5834 0.452403,-1.5834 0.248821,0 0.452402,-0.58897 0.452402,-1.30881 0,-0.74605 0.291786,-1.42077 0.678603,-1.56921 0.396695,-0.15222 0.678604,-0.83012 0.678604,-1.63181 0,-0.75427 0.203581,-1.3714 0.452402,-1.3714 0.248821,0 0.452402,-0.40717 0.452402,-0.90481 0,-0.49764 0.203581,-0.9048 0.452403,-0.9048 0.248821,0 0.452402,-0.71254 0.452402,-1.58341 0,-0.87088 0.203581,-1.58341 0.452402,-1.58341 0.248821,0 0.452403,-0.40716 0.452403,-0.9048 0,-0.49765 0.203581,-0.90481 0.452402,-0.90481 0.248821,0 0.452402,-0.50895 0.452402,-1.131 0,-0.62206 0.218123,-1.13101 0.484717,-1.13101 0.720775,0 1.777295,-1.19099 1.777295,-2.0035 0,-0.391 0.203581,-0.71091 0.452402,-0.71091 0.248821,0 0.452402,-0.42171 0.452402,-0.93712 0,-1.00159 0.978929,-2.2297 1.777295,-2.2297 0.266594,0 0.484717,-0.40716 0.484717,-0.9048 0,-0.49765 0.203581,-0.90481 0.452402,-0.90481 0.248821,0 0.452402,-0.30537 0.452402,-0.6786 0,-0.37323 0.203581,-0.67861 0.452402,-0.67861 0.248822,0 0.452403,-0.31462 0.452403,-0.69916 0,-0.7872 1.967636,-2.92005 2.69385,-2.92005 0.260131,0 0.472966,-0.26043 0.472966,-0.57874 0,-0.3183 0.407162,-0.87219 0.904804,-1.23087 0.497643,-0.35868 0.904805,-1.00065 0.904805,-1.4266 0,-0.42594 0.413723,-0.90575 0.919384,-1.06624 1.273959,-0.40434 3.152237,-2.21937 3.152237,-3.04608 0,-0.37672 0.610743,-0.93792 1.357206,-1.24712 0.746464,-0.30919 1.357207,-0.84284 1.357207,-1.18589 0,-0.34304 0.223693,-0.62372 0.497095,-0.62372 0.273403,0 1.067615,-0.61074 1.764917,-1.3572 0.697301,-0.74647 1.607846,-1.35721 2.023431,-1.35721 0.849661,0 2.048189,-1.04001 2.048189,-1.7773 0,-0.26659 0.36222,-0.48471 0.804933,-0.48471 0.442713,0 1.098398,-0.40716 1.457079,-0.90481 0.35868,-0.49764 1.116156,-0.9048 1.68328,-0.9048 0.567124,0 1.031134,-0.20358 1.031134,-0.4524 0,-0.24882 0.407162,-0.45241 0.904804,-0.45241 0.497643,0 0.904805,-0.20358 0.904805,-0.4524 0,-0.24882 0.508952,-0.4524 1.131005,-0.4524 0.703738,0 1.131006,-0.25636 1.131006,-0.6786 0,-0.37701 0.402136,-0.67861 0.904805,-0.67861 0.497642,0 0.904804,-0.20358 0.904804,-0.4524 0,-0.24882 0.407162,-0.4524 0.904805,-0.4524 0.497642,0 0.904805,-0.20358 0.904805,-0.4524 0,-0.24883 0.508952,-0.45241 1.131005,-0.45241 0.622053,0 1.131006,-0.20358 1.131006,-0.4524 0,-0.24882 0.712534,-0.4524 1.583408,-0.4524 0.870874,0 1.583408,-0.20358 1.583408,-0.4524 0,-0.24882 0.610743,-0.45241 1.357207,-0.45241 0.904804,0 1.357207,-0.2262 1.357207,-0.6786 0,-0.47394 0.477538,-0.6786 1.583408,-0.6786 0.870874,0 1.583408,-0.20358 1.583408,-0.4524 0,-0.24883 0.814324,-0.45241 1.809609,-0.45241 0.995285,0 1.809609,-0.18749 1.809609,-0.41666 0,-0.64392 6.065765,-1.00858 16.738885,-1.00629 10.832012,0.002 17.191282,0.37408 17.191282,1.005 0,0.22987 0.71254,0.41795 1.58341,0.41795 0.87088,0 1.58341,0.20358 1.58341,0.45241 0,0.24882 0.91612,0.4524 2.03581,0.4524 1.50801,0 2.03581,0.17593 2.03581,0.6786 0,0.41787 0.42431,0.6786 1.10431,0.6786 0.60736,0 1.23012,0.20359 1.3839,0.45241 0.15378,0.24882 0.77654,0.4524 1.38391,0.4524 0.60737,0 1.10431,0.20358 1.10431,0.4524 0,0.24882 0.61074,0.4524 1.3572,0.4524 0.74647,0 1.35721,0.20358 1.35721,0.45241 0,0.24882 0.50895,0.4524 1.13101,0.4524 0.62205,0 1.131,0.20358 1.131,0.4524 0,0.24882 0.40716,0.4524 0.90481,0.4524 0.50267,0 0.9048,0.3016 0.9048,0.67861 0,0.42224 0.42727,0.6786 1.13101,0.6786 0.62205,0 1.131,0.20358 1.131,0.4524 0,0.24882 0.40716,0.4524 0.90481,0.4524 0.49764,0 0.9048,0.20359 0.9048,0.45241 0,0.24882 0.41395,0.4524 0.91988,0.4524 0.50594,0 1.61456,0.66164 2.4636,1.47031 2.22334,2.11763 2.85246,2.60131 3.38346,2.60131 0.25933,0 0.4715,0.20358 0.4715,0.4524 0,0.24882 0.31462,0.4524 0.69916,0.4524 0.7872,0 2.92006,1.96764 2.92006,2.69385 0,0.26013 0.41394,0.47297 0.91988,0.47297 0.9438,0 4.05654,2.76559 4.05654,3.60414 0,0.25711 0.21954,0.46748 0.48787,0.46748 0.26833,0 1.27028,0.81432 2.22655,1.80961 0.95627,0.99528 1.95821,1.80961 2.22654,1.80961 0.26833,0 0.48787,0.30537 0.48787,0.6786 0,0.37323 0.20358,0.67861 0.4524,0.67861 0.24882,0 0.4524,0.32548 0.4524,0.72329 0,0.39782 0.61075,1.29382 1.35721,1.99112 0.74646,0.6973 1.35721,1.49151 1.35721,1.76492 0,0.2734 0.30537,0.49709 0.6786,0.49709 0.37323,0 0.6786,0.36222 0.6786,0.80493 0,0.44272 0.40717,1.0984 0.90481,1.45708 0.49764,0.35868 0.90424,0.86168 0.90355,1.11778 -0.002,0.91603 2.04647,4.31105 2.60179,4.31105 0.31146,0 0.56628,0.50895 0.56628,1.13101 0,0.62205 0.20358,1.131 0.4524,1.131 0.24882,0 0.4524,0.40716 0.4524,0.90481 0,0.49764 0.20359,0.9048 0.45241,0.9048 0.24882,0 0.4524,0.37323 0.4524,0.8294 0,0.45618 0.13952,0.96893 0.31005,1.13946 0.45088,0.45088 1.48478,3.55233 1.49274,4.47787 0.004,0.43544 0.31219,0.79171 0.68542,0.79171 0.4524,0 0.67861,0.4524 0.67861,1.3572 0,0.74647 0.20358,1.35721 0.4524,1.35721 0.24882,0 0.4524,0.50895 0.4524,1.13101 0,0.62205 0.20358,1.131 0.4524,1.131 0.24882,0 0.4524,1.1197 0.4524,2.48821 0,1.36852 0.20359,2.48822 0.45241,2.48822 0.2552,0 0.4524,1.2818 0.4524,2.94061 0,2.31228 0.145,2.94062 0.6786,2.94062 0.59861,0 0.67861,5.24631 0.67861,44.50243 l 0,44.50243 -1.69651,0.28042 c -0.93308,0.15422 -9.48349,0.28265 -19.0009,0.28539 l -17.30439,0.005 0,-10.85765 z m -33.10077,-28.1132 c 0.0829,-0.21348 0.85276,-0.38815 1.71071,-0.38815 0.96925,0 1.65851,-0.25695 1.82031,-0.6786 0.14323,-0.37323 0.74758,-0.67861 1.34301,-0.67861 0.59543,0 1.08261,-0.20358 1.08261,-0.4524 0,-0.24882 0.50895,-0.4524 1.131,-0.4524 0.62205,0 1.13101,-0.20358 1.13101,-0.4524 0,-0.24882 0.61074,-0.4524 1.3572,-0.4524 0.74647,0 1.35721,-0.20359 1.35721,-0.45241 0,-0.24882 0.30537,-0.4524 0.6786,-0.4524 0.37324,0 0.67861,-0.30537 0.67861,-0.6786 0,-0.37323 0.32548,-0.67861 0.72329,-0.67861 0.39781,0 1.29382,-0.61074 1.99112,-1.3572 0.6973,-0.74647 1.60785,-1.35721 2.02343,-1.35721 0.74127,0 2.04819,-1.01035 2.04819,-1.58341 0,-0.39204 1.21255,-1.58341 1.61156,-1.58341 0.55668,0 2.45894,-2.45954 2.45951,-3.18004 3e-4,-0.38051 0.40771,-0.9853 0.90536,-1.34398 0.49764,-0.35868 0.9048,-1.01437 0.9048,-1.45708 0,-0.44271 0.21812,-0.80493 0.48472,-0.80493 0.79836,0 1.77729,-1.22811 1.77729,-2.2297 0,-0.51541 0.20358,-0.93712 0.45241,-0.93712 0.24882,0 0.4524,-0.40716 0.4524,-0.9048 0,-0.49764 0.20358,-0.90481 0.4524,-0.90481 0.24882,0 0.4524,-0.71253 0.4524,-1.5834 0,-0.87088 0.20358,-1.58341 0.4524,-1.58341 0.24883,0 0.45241,-0.71253 0.45241,-1.58341 0,-1.10587 0.20465,-1.58341 0.6786,-1.58341 0.52095,0 0.6786,-0.57807 0.6786,-2.48821 0,-1.36852 0.20359,-2.48821 0.45241,-2.48821 0.27646,0 0.4524,-2.11121 0.4524,-5.42883 0,-3.31762 -0.17594,-5.42883 -0.4524,-5.42883 -0.24882,0 -0.45241,-1.11969 -0.45241,-2.48821 0,-1.91014 -0.15765,-2.48821 -0.6786,-2.48821 -0.47395,0 -0.6786,-0.47754 -0.6786,-1.58341 0,-0.87088 -0.20358,-1.58341 -0.45241,-1.58341 -0.24882,0 -0.4524,-0.71253 -0.4524,-1.58341 0,-0.87087 -0.20358,-1.5834 -0.4524,-1.5834 -0.24882,0 -0.4524,-0.40717 -0.4524,-0.90481 0,-0.49764 -0.20358,-0.9048 -0.4524,-0.9048 -0.24883,0 -0.45241,-0.50896 -0.45241,-1.13101 0,-0.62205 -0.20358,-1.13101 -0.4524,-1.13101 -0.24882,0 -0.4524,-0.40716 -0.4524,-0.9048 0,-0.49764 -0.21812,-0.9048 -0.48472,-0.9048 -0.72077,0 -1.77729,-1.19099 -1.77729,-2.0035 0,-0.39101 -0.20358,-0.71092 -0.4524,-0.71092 -0.24883,0 -0.45241,-0.21283 -0.45241,-0.47296 0,-0.50445 -2.03182,-2.69385 -2.49996,-2.69385 -0.36233,0 -1.57166,-1.20933 -1.57166,-1.57166 0,-0.58941 -2.25629,-2.49996 -2.95236,-2.49996 -0.74065,0 -2.02406,-1.02361 -2.02406,-1.61433 0,-0.53279 -1.52863,-1.52272 -2.37512,-1.5381 -0.43543,-0.008 -0.7917,-0.21797 -0.7917,-0.46679 0,-0.24882 -0.40716,-0.45241 -0.9048,-0.45241 -0.49765,0 -0.90481,-0.20358 -0.90481,-0.4524 0,-0.24882 -0.71253,-0.4524 -1.58341,-0.4524 -0.87087,0 -1.5834,-0.20358 -1.5834,-0.4524 0,-0.24882 -0.40717,-0.4524 -0.90481,-0.4524 -0.50267,0 -0.9048,-0.30161 -0.9048,-0.67861 0,-0.47394 -0.47754,-0.6786 -1.58341,-0.6786 -0.87088,0 -1.58341,-0.20358 -1.58341,-0.4524 0,-0.25521 -1.281804,-0.45241 -2.940614,-0.45241 -1.65881,0 -2.940615,-0.1972 -2.940615,-0.4524 0,-0.26809 -1.65881,-0.4524 -4.071621,-0.4524 -2.412811,0 -4.07162,0.18431 -4.07162,0.4524 0,0.2552 -1.281805,0.4524 -2.940615,0.4524 -1.65881,0 -2.940615,0.1972 -2.940615,0.45241 0,0.24882 -0.712534,0.4524 -1.583408,0.4524 -1.105871,0 -1.583408,0.20466 -1.583408,0.6786 0,0.4524 -0.452403,0.67861 -1.357207,0.67861 -0.746464,0 -1.357207,0.20358 -1.357207,0.4524 0,0.24882 -0.508953,0.4524 -1.131006,0.4524 -0.622053,0 -1.131005,0.20358 -1.131005,0.4524 0,0.24882 -0.407163,0.4524 -0.904805,0.4524 -0.497643,0 -0.904805,0.20359 -0.904805,0.45241 0,0.24882 -0.356266,0.45887 -0.791704,0.46679 -0.846481,0.0154 -2.375112,1.00531 -2.375112,1.5381 0,0.59072 -1.283411,1.61433 -2.024061,1.61433 -0.696071,0 -2.952364,1.91055 -2.952364,2.49996 0,0.36233 -1.20933,1.57166 -1.571659,1.57166 -0.468141,0 -2.499961,2.1894 -2.499961,2.69385 0,0.26013 -0.203582,0.47296 -0.452403,0.47296 -0.248821,0 -0.452402,0.31991 -0.452402,0.71092 0,0.81251 -1.056518,2.0035 -1.777295,2.0035 -0.266594,0 -0.484717,0.40716 -0.484717,0.9048 0,0.49764 -0.203581,0.9048 -0.452402,0.9048 -0.248821,0 -0.452402,0.50896 -0.452402,1.13101 0,0.62205 -0.203581,1.13101 -0.452402,1.13101 -0.248822,0 -0.452403,0.40716 -0.452403,0.9048 0,0.49764 -0.203581,0.90481 -0.452402,0.90481 -0.248821,0 -0.452402,0.50895 -0.452402,1.131 0,0.62205 -0.203581,1.13101 -0.452403,1.13101 -0.248821,0 -0.452402,0.58896 -0.452402,1.3088 0,0.71985 -0.286604,1.41879 -0.636898,1.55321 -0.818471,0.31407 -1.242095,4.24561 -1.251503,11.61486 -0.009,7.05848 0.394155,10.40525 1.25346,10.40525 0.424045,0 0.634941,0.52593 0.634941,1.58341 0,0.87088 0.203581,1.58341 0.452402,1.58341 0.248822,0 0.452403,0.71253 0.452403,1.58341 0,0.87087 0.203581,1.5834 0.452402,1.5834 0.248821,0 0.452402,0.40717 0.452402,0.90481 0,0.49764 0.203581,0.9048 0.452403,0.9048 0.248821,0 0.452402,0.50896 0.452402,1.13101 0,0.62205 0.203581,1.13101 0.452402,1.13101 0.248821,0 0.452402,0.25641 0.452402,0.56981 0,0.3134 0.708134,1.17862 1.573632,1.92271 0.865495,0.74409 1.578029,1.71841 1.583408,2.16516 0.0091,0.75888 1.890947,3.03315 2.509738,3.03315 0.362329,0 1.571659,1.20933 1.571659,1.57166 0,0.62913 2.27975,2.49996 3.046382,2.49996 0.454022,0 1.118958,0.40717 1.477641,0.90481 0.358683,0.49764 1.014367,0.9048 1.457079,0.9048 0.442712,0 0.804932,0.30538 0.804932,0.67861 0,0.37323 0.305372,0.6786 0.678604,0.6786 0.373232,0 0.678603,0.20358 0.678603,0.4524 0,0.24882 0.610743,0.45241 1.357207,0.45241 0.746464,0 1.357207,0.20358 1.357207,0.4524 0,0.24882 0.508953,0.4524 1.131006,0.4524 0.622053,0 1.131006,0.20358 1.131006,0.4524 0,0.24882 0.319911,0.4524 0.710918,0.4524 0.391002,0 1.01629,0.30538 1.389522,0.67861 0.373232,0.37323 1.376592,0.6786 2.229696,0.6786 0.8531,0 1.551093,0.19502 1.551093,0.43338 0,0.88237 17.677538,0.838 18.020686,-0.0452 l 0,1e-5 z"
       transform="translate(-102.09214,517.78214)"
       id="path6966"
       style="fill:#ffffff;fill-opacity:0.98818898" />
    <path
       d="m 253.02276,338.36995 c 0,-0.5336 -0.62834,-0.6786 -2.94061,-0.6786 -1.65881,0 -2.94062,-0.1972 -2.94062,-0.4524 0,-0.24882 -0.91611,-0.4524 -2.03581,-0.4524 -1.1197,0 -2.03581,-0.20358 -2.03581,-0.45241 0,-0.24882 -1.1197,-0.4524 -2.48821,-0.4524 -1.36852,0 -2.48822,-0.20358 -2.48822,-0.4524 0,-0.24882 -0.40716,-0.4524 -0.9048,-0.4524 -0.49764,0 -0.9048,-0.20358 -0.9048,-0.45241 0,-0.24882 -0.71254,-0.4524 -1.58341,-0.4524 -1.10587,0 -1.58341,-0.20466 -1.58341,-0.6786 0,-0.377 -0.40214,-0.6786 -0.90481,-0.6786 -0.49764,0 -0.9048,-0.20359 -0.9048,-0.45241 0,-0.24882 -0.50895,-0.4524 -1.13101,-0.4524 -0.62205,0 -1.131,-0.20358 -1.131,-0.4524 0,-0.24882 -0.61074,-0.4524 -1.35721,-0.4524 -0.74646,0 -1.3572,-0.20358 -1.3572,-0.45241 0,-0.24882 -0.42171,-0.4524 -0.93712,-0.4524 -1.00159,0 -2.2297,-0.97893 -2.2297,-1.77729 0,-0.2666 -0.40716,-0.48472 -0.90481,-0.48472 -0.49764,0 -0.9048,-0.20358 -0.9048,-0.4524 0,-0.24882 -0.46401,-0.4524 -1.03113,-0.4524 -0.56713,0 -1.3246,-0.40717 -1.68328,-0.90481 -0.35868,-0.49764 -1.01437,-0.9048 -1.45708,-0.9048 -0.44272,0 -0.80494,-0.20358 -0.80494,-0.45241 0,-0.24882 -0.30537,-0.4524 -0.6786,-0.4524 -0.37323,0 -0.6786,-0.28067 -0.6786,-0.62372 0,-0.34304 -0.61075,-0.87669 -1.35721,-1.18589 -0.74646,-0.30919 -1.35721,-0.74105 -1.35721,-0.95969 0,-0.21863 -0.21812,-0.39751 -0.48471,-0.39751 -0.52725,0 -1.7773,-1.11368 -1.7773,-1.58341 0,-0.55768 -1.29786,-1.58341 -2.00349,-1.58341 -0.39101,0 -0.71092,-0.20358 -0.71092,-0.4524 0,-0.24882 -0.21284,-0.4524 -0.47297,-0.4524 -0.49734,0 -2.69385,-2.02884 -2.69385,-2.48822 0,-0.14703 -0.45805,-0.76479 -1.0179,-1.37279 -2.59175,-2.8147 -3.05372,-3.36418 -3.05372,-3.63216 0,-0.15788 -0.61074,-0.85758 -1.3572,-1.55488 -0.74647,-0.6973 -1.35721,-1.59331 -1.35721,-1.99112 0,-0.39781 -0.30537,-0.72329 -0.6786,-0.72329 -0.37324,0 -0.67861,-0.30538 -0.67861,-0.67861 0,-0.37323 -0.20358,-0.6786 -0.4524,-0.6786 -0.24882,0 -0.4524,-0.36222 -0.4524,-0.80493 0,-0.44272 -0.40717,-1.0984 -0.90481,-1.45708 -0.49764,-0.35869 -0.9048,-1.02076 -0.9048,-1.47128 0,-0.45052 -0.30537,-0.93631 -0.67861,-1.07953 -0.37323,-0.14323 -0.6786,-0.60085 -0.6786,-1.01694 0,-0.41609 -0.40716,-1.04999 -0.9048,-1.40868 -0.49765,-0.35868 -0.90481,-1.11616 -0.90481,-1.68328 0,-0.56712 -0.20358,-1.03113 -0.4524,-1.03113 -0.24882,0 -0.4524,-0.40716 -0.4524,-0.90481 0,-0.49764 -0.20358,-0.9048 -0.45241,-0.9048 -0.24882,0 -0.4524,-0.71253 -0.4524,-1.58341 0,-1.10587 -0.20466,-1.58341 -0.6786,-1.58341 -0.377,0 -0.6786,-0.40213 -0.6786,-0.9048 0,-0.49764 -0.20359,-0.90481 -0.45241,-0.90481 -0.24882,0 -0.4524,-0.71253 -0.4524,-1.5834 0,-0.87088 -0.20358,-1.58341 -0.4524,-1.58341 -0.24882,0 -0.4524,-0.71254 -0.4524,-1.58341 0,-0.87087 -0.18309,-1.58341 -0.40685,-1.58341 -0.43732,0 -0.84853,-2.45442 -1.23649,-7.38041 -0.16262,-2.06473 -0.45423,-3.16374 -0.88313,-3.32832 -0.54842,-0.21045 -0.64035,-10.40309 -0.64035,-70.99828 l 0,-70.75256 19.0009,0 19.00089,0 0,37.32319 c 0,24.58052 0.15446,37.32319 0.45241,37.32319 0.24882,0 0.4524,-0.20358 0.4524,-0.4524 0,-0.24883 0.21036,-0.45241 0.46748,-0.45241 0.60823,0 3.60414,-2.99591 3.60414,-3.60414 0,-0.25711 0.20894,-0.46748 0.46431,-0.46748 0.25536,0 1.36324,-0.86522 2.46194,-1.92271 2.45147,-2.35951 3.28331,-3.05371 3.65918,-3.05371 0.15949,0 0.86051,-0.61075 1.55781,-1.35721 0.6973,-0.74646 1.6951,-1.35721 2.21732,-1.35721 0.52222,0 0.9495,-0.20358 0.9495,-0.4524 0,-0.24882 0.40716,-0.4524 0.9048,-0.4524 0.49764,0 0.9048,-0.21812 0.9048,-0.48472 0,-0.79836 1.22811,-1.77729 2.2297,-1.77729 0.51542,0 0.93712,-0.15914 0.93712,-0.35364 0,-0.1945 0.96701,-0.6169 2.14891,-0.93866 1.1819,-0.32177 2.61655,-0.77338 3.1881,-1.00358 0.57156,-0.23019 1.54496,-0.41854 2.16311,-0.41854 0.61816,0 1.2411,-0.30537 1.38432,-0.6786 0.17679,-0.4607 0.89857,-0.6786 2.24782,-0.6786 1.09307,0 1.98741,-0.20358 1.98741,-0.4524 0,-0.28614 3.24222,-0.45241 8.82184,-0.45241 5.57963,0 8.82185,0.16627 8.82185,0.45241 0,0.24882 1.03244,0.4524 2.29432,0.4524 1.4362,0 2.54814,0.25381 2.97293,0.6786 0.3989,0.39889 1.50442,0.6786 2.6821,0.6786 1.10192,0 2.0035,0.1822 2.0035,0.40489 0,0.22269 0.76343,0.52025 1.69651,0.66124 4.04873,0.61181 5.08952,0.86649 5.08952,1.24538 0,0.2216 0.50895,0.40291 1.13101,0.40291 0.62205,0 1.131,0.20358 1.131,0.4524 0,0.24882 0.38539,0.4524 0.8564,0.4524 0.47103,0 0.97359,0.30537 1.11681,0.67861 0.15223,0.39669 0.83012,0.6786 1.63181,0.6786 0.75428,0 1.37141,0.20358 1.37141,0.4524 0,0.24882 0.40716,0.4524 0.9048,0.4524 0.49765,0 0.90481,0.20359 0.90481,0.45241 0,0.24882 0.46401,0.4524 1.03113,0.4524 0.56712,0 1.3246,0.40716 1.68328,0.9048 0.35868,0.49765 1.01437,0.90481 1.45708,0.90481 0.44271,0 0.80493,0.30537 0.80493,0.6786 0,0.40472 0.41618,0.6786 1.03114,0.6786 0.56712,0 1.32459,0.40717 1.68328,0.90481 0.35868,0.49764 1.01436,0.9048 1.45708,0.9048 0.44271,0 0.80493,0.20358 0.80493,0.45241 0,0.24882 0.21812,0.4524 0.48471,0.4524 0.62635,0 1.7773,1.15095 1.7773,1.77729 0,0.2666 0.36222,0.48472 0.80493,0.48472 0.44271,0 1.0984,0.40716 1.45708,0.9048 0.35868,0.49765 0.82533,0.90481 1.03699,0.90481 0.44023,0 1.67742,1.15514 1.67742,1.56617 0,0.3567 3.05356,3.41025 3.41026,3.41025 0.35816,0 1.56617,1.21224 1.56617,1.57166 0,0.36338 2.13658,2.49996 2.49996,2.49996 0.5479,0 1.57166,1.30506 1.57166,2.0035 0,0.39101 0.20358,0.71092 0.4524,0.71092 0.24882,0 0.4524,0.26043 0.4524,0.57873 0,0.3183 0.40717,0.8722 0.90481,1.23088 0.49764,0.35868 0.9048,1.01437 0.9048,1.45708 0,0.44271 0.30538,0.80493 0.67861,0.80493 0.37323,0 0.6786,0.30537 0.6786,0.6786 0,0.37323 0.20358,0.67861 0.4524,0.67861 0.24882,0 0.45241,0.40716 0.45241,0.9048 0,0.49764 0.20358,0.90481 0.4524,0.90481 0.24882,0 0.4524,0.36877 0.4524,0.81949 0,0.45073 0.40716,1.25654 0.9048,1.7907 0.49765,0.53415 0.90481,1.28507 0.90481,1.66871 0,0.38363 0.30537,0.69752 0.6786,0.69752 0.42224,0 0.67861,0.42727 0.67861,1.13101 0,0.62205 0.20358,1.131 0.4524,1.131 0.24882,0 0.4524,0.61074 0.4524,1.35721 0,0.74646 0.20358,1.35721 0.4524,1.35721 0.24882,0 0.4524,0.50895 0.4524,1.131 0,0.62205 0.20359,1.13101 0.45241,1.13101 0.24882,0 0.4524,0.61074 0.4524,1.3572 0,0.74647 0.20358,1.35721 0.4524,1.35721 0.24882,0 0.4524,0.50895 0.4524,1.13101 0,0.70374 0.25637,1.131 0.67861,1.131 0.51272,0 0.6786,0.55294 0.6786,2.26201 0,1.24411 0.20358,2.26202 0.4524,2.26202 0.24882,0 0.45241,1.11969 0.45241,2.48821 0,1.36851 0.20358,2.48821 0.4524,2.48821 0.25851,0 0.4524,1.35721 0.4524,3.16682 0,1.80961 0.19389,3.16681 0.4524,3.16681 0.28332,0 0.4524,2.78982 0.4524,7.46464 0,4.67482 -0.16908,7.46464 -0.4524,7.46464 -0.26139,0 -0.4524,1.43261 -0.4524,3.39302 0,1.9604 -0.19101,3.39301 -0.4524,3.39301 -0.24882,0 -0.4524,1.01791 -0.4524,2.26201 0,1.24411 -0.20359,2.26202 -0.45241,2.26202 -0.24882,0 -0.4524,1.0179 -0.4524,2.26201 0,1.70907 -0.16588,2.26201 -0.6786,2.26201 -0.42224,0 -0.67861,0.42727 -0.67861,1.131 0,0.62206 -0.20358,1.13101 -0.4524,1.13101 -0.24882,0 -0.4524,0.61074 -0.4524,1.35721 0,0.74646 -0.20358,1.3572 -0.4524,1.3572 -0.24882,0 -0.45241,0.50896 -0.45241,1.13101 0,0.62205 -0.20358,1.131 -0.4524,1.131 -0.24882,0 -0.4524,0.61075 -0.4524,1.35721 0,0.74647 -0.20358,1.35721 -0.4524,1.35721 -0.24882,0 -0.4524,0.50895 -0.4524,1.131 0,0.70374 -0.25637,1.13101 -0.67861,1.13101 -0.377,0 -0.6786,0.40214 -0.6786,0.9048 0,0.49765 -0.16558,0.90481 -0.36796,0.90481 -0.20238,0 -0.64754,0.71253 -0.98925,1.58341 -0.3417,0.87087 -0.78686,1.58341 -0.98924,1.58341 -0.20238,0 -0.36796,0.35884 -0.36796,0.79742 0,0.43859 -0.50896,1.17964 -1.13101,1.64678 -0.62205,0.46714 -1.13101,1.18305 -1.13101,1.59091 0,0.40786 -0.40716,1.03503 -0.9048,1.39371 -0.49764,0.35869 -0.90481,1.01437 -0.90481,1.45708 0,0.44271 -0.20358,0.80493 -0.4524,0.80493 -0.24882,0 -0.4524,0.21813 -0.4524,0.48472 0,0.51743 -1.1102,1.7773 -1.56617,1.7773 -0.46729,0 -3.41026,3.11028 -3.41026,3.60414 0,0.25711 -0.19822,0.46748 -0.44049,0.46748 -0.5739,0 -4.53593,3.96202 -4.53593,4.53593 0,0.24227 -0.2237,0.44049 -0.4971,0.44049 -0.2734,0 -1.06761,0.61074 -1.76491,1.35721 -0.6973,0.74646 -1.59331,1.35721 -1.99112,1.35721 -0.39781,0 -0.7233,0.30537 -0.7233,0.6786 0,0.37323 -0.26043,0.6786 -0.57873,0.6786 -0.3183,0 -0.87219,0.40716 -1.23087,0.90481 -0.35869,0.49764 -1.01437,0.9048 -1.45708,0.9048 -0.44272,0 -0.80494,0.20358 -0.80494,0.4524 0,0.24882 -0.35626,0.45888 -0.7917,0.46679 -0.97777,0.0178 -2.37511,1.03675 -2.37511,1.732 0,0.28359 -0.40716,0.51563 -0.90481,0.51563 -0.49764,0 -0.9048,0.20358 -0.9048,0.4524 0,0.24882 -0.50895,0.4524 -1.13101,0.4524 -0.62205,0 -1.131,0.20358 -1.131,0.4524 0,0.24883 -0.40716,0.45241 -0.90481,0.45241 -0.49764,0 -0.9048,0.20358 -0.9048,0.4524 0,0.24882 -0.50895,0.4524 -1.13101,0.4524 -0.62205,0 -1.131,0.20358 -1.131,0.4524 0,0.24882 -0.39263,0.45241 -0.87249,0.45241 -0.47988,0 -1.17786,0.30537 -1.5511,0.6786 -0.37323,0.37323 -1.10031,0.6786 -1.61572,0.6786 -0.51542,0 -0.93712,0.20358 -0.93712,0.4524 0,0.24883 -0.61074,0.45241 -1.35721,0.45241 -0.74646,0 -1.3572,0.20358 -1.3572,0.4524 0,0.24882 -0.91612,0.4524 -2.03581,0.4524 -1.1197,0 -2.03581,0.20358 -2.03581,0.4524 0,0.24883 -0.91612,0.45241 -2.03581,0.45241 -1.1197,0 -2.03581,0.20358 -2.03581,0.4524 0,0.24882 -1.10516,0.4524 -2.4559,0.4524 -1.57982,0 -2.69797,0.24208 -3.1345,0.6786 -0.55922,0.55922 -2.31587,0.67861 -9.98517,0.67861 -7.9709,0 -9.30656,-0.0974 -9.30656,-0.67861 z m 18.02069,-39.64365 c 0.0829,-0.21667 0.84637,-0.39395 1.69651,-0.39395 1.07236,0 1.54571,-0.20781 1.54571,-0.6786 0,-0.4524 0.4524,-0.67861 1.3572,-0.67861 0.74647,0 1.35721,-0.20358 1.35721,-0.4524 0,-0.24882 0.50895,-0.4524 1.13101,-0.4524 0.62205,0 1.131,-0.20358 1.131,-0.4524 0,-0.24882 0.40717,-0.4524 0.90481,-0.4524 0.49764,0 0.9048,-0.20359 0.9048,-0.45241 0,-0.24882 0.50895,-0.4524 1.13101,-0.4524 0.62205,0 1.131,-0.21812 1.131,-0.48472 0,-0.68147 1.17372,-1.77729 1.90363,-1.77729 0.33607,0 0.90451,-0.40716 1.26319,-0.90481 0.35868,-0.49764 0.82533,-0.9048 1.03699,-0.9048 0.44326,0 1.67742,-1.15635 1.67742,-1.57166 0,-0.35659 2.1333,-2.49996 2.48822,-2.49996 0.45937,0 2.48821,-2.19651 2.48821,-2.69385 0,-0.26013 0.20358,-0.47297 0.4524,-0.47297 0.24882,0 0.4524,-0.31991 0.4524,-0.71091 0,-0.81251 1.05652,-2.0035 1.7773,-2.0035 0.26659,0 0.48471,-0.50895 0.48471,-1.13101 0,-0.62205 0.20359,-1.131 0.45241,-1.131 0.24882,0 0.4524,-0.40716 0.4524,-0.90481 0,-0.49764 0.20358,-0.9048 0.4524,-0.9048 0.24882,0 0.4524,-0.50895 0.4524,-1.13101 0,-0.62205 0.20358,-1.131 0.45241,-1.131 0.24882,0 0.4524,-0.61075 0.4524,-1.35721 0,-0.74646 0.20358,-1.35721 0.4524,-1.35721 0.24882,0 0.4524,-0.71253 0.4524,-1.5834 0,-1.10587 0.20466,-1.58341 0.67861,-1.58341 0.58165,0 0.6786,-1.35721 0.6786,-9.50045 0,-8.14324 -0.0969,-9.50045 -0.6786,-9.50045 -0.47395,0 -0.67861,-0.47754 -0.67861,-1.58341 0,-0.87087 -0.20358,-1.5834 -0.4524,-1.5834 -0.24882,0 -0.4524,-0.71254 -0.4524,-1.58341 0,-0.87088 -0.20358,-1.58341 -0.4524,-1.58341 -0.24883,0 -0.45241,-0.40716 -0.45241,-0.9048 0,-0.49765 -0.20358,-0.90481 -0.4524,-0.90481 -0.24882,0 -0.4524,-0.40716 -0.4524,-0.9048 0,-0.49765 -0.20358,-0.90481 -0.4524,-0.90481 -0.24882,0 -0.45241,-0.50895 -0.45241,-1.131 0,-0.70374 -0.25636,-1.13101 -0.6786,-1.13101 -0.37323,0 -0.6786,-0.36222 -0.6786,-0.80493 0,-0.44271 -0.40716,-1.0984 -0.90481,-1.45708 -0.49764,-0.35868 -0.9048,-0.91258 -0.9048,-1.23088 0,-0.3183 -0.20358,-0.57873 -0.4524,-0.57873 -0.24882,0 -0.45241,-0.31991 -0.45241,-0.71092 0,-0.70563 -1.02572,-2.00349 -1.5834,-2.00349 -0.39345,0 -1.58341,-1.21319 -1.58341,-1.61433 0,-0.46834 -1.48518,-1.5213 -2.16947,-1.5381 -0.70677,-0.0173 -2.80696,-2.04369 -2.80696,-2.70824 0,-0.26013 -0.40716,-0.47297 -0.9048,-0.47297 -0.49764,0 -0.90481,-0.20358 -0.90481,-0.4524 0,-0.24882 -0.30537,-0.4524 -0.6786,-0.4524 -0.37323,0 -0.6786,-0.20358 -0.6786,-0.4524 0,-0.24882 -0.61075,-0.45241 -1.35721,-0.45241 -0.74646,0 -1.35721,-0.20358 -1.35721,-0.4524 0,-0.24882 -0.50895,-0.4524 -1.131,-0.4524 -0.62206,0 -1.13101,-0.20358 -1.13101,-0.4524 0,-0.24882 -0.48717,-0.4524 -1.0826,-0.4524 -0.59544,0 -1.19979,-0.30538 -1.34301,-0.67861 -0.16345,-0.42593 -0.85525,-0.6786 -1.85801,-0.6786 -0.87869,0 -1.59761,-0.20358 -1.59761,-0.4524 0,-0.24883 -1.11969,-0.45241 -2.48821,-0.45241 -1.36852,0 -2.48821,-0.20358 -2.48821,-0.4524 0,-0.27144 -1.80961,-0.4524 -4.52403,-0.4524 -2.71441,0 -4.52402,0.18096 -4.52402,0.4524 0,0.24882 -1.11969,0.4524 -2.48821,0.4524 -1.36852,0 -2.48821,0.20358 -2.48821,0.45241 0,0.24882 -0.71254,0.4524 -1.58341,0.4524 -1.10587,0 -1.58341,0.20466 -1.58341,0.6786 0,0.47395 -0.47754,0.67861 -1.58341,0.67861 -0.87087,0 -1.58341,0.20358 -1.58341,0.4524 0,0.24882 -0.40716,0.4524 -0.9048,0.4524 -0.49764,0 -0.90481,0.20358 -0.90481,0.4524 0,0.24882 -0.50895,0.4524 -1.131,0.4524 -0.62205,0 -1.13101,0.20359 -1.13101,0.45241 0,0.24882 -0.31396,0.4524 -0.6977,0.4524 -0.65274,0 -1.10954,0.28931 -2.6787,1.69651 -0.34682,0.31102 -0.75371,0.5655 -0.90418,0.5655 -0.3567,0 -3.41026,3.05355 -3.41026,3.41025 0,0.35526 -1.21091,1.56618 -1.56617,1.56618 -0.59999,0 -3.41025,3.18307 -3.41025,3.86265 0,0.73625 -1.02552,2.01858 -1.61432,2.01858 -0.5328,0 -1.52273,1.52863 -1.53811,2.37511 -0.008,0.43543 -0.21797,0.7917 -0.46679,0.7917 -0.24882,0 -0.4524,0.40716 -0.4524,0.90481 0,0.49764 -0.20358,0.9048 -0.4524,0.9048 -0.24883,0 -0.45241,0.71253 -0.45241,1.58341 0,1.10587 -0.20465,1.58341 -0.6786,1.58341 -0.4524,0 -0.6786,0.4524 -0.6786,1.3572 0,0.74647 -0.20358,1.35721 -0.45241,1.35721 -0.24882,0 -0.4524,0.71253 -0.4524,1.58341 0,0.87087 -0.21227,1.58341 -0.47172,1.58341 -0.31733,0 -0.40721,2.70228 -0.27462,8.25634 0.2059,8.62539 0.56391,12.10176 1.24626,12.10176 0.22269,0 0.40489,0.61074 0.40489,1.35721 0,0.9048 0.2262,1.3572 0.6786,1.3572 0.47395,0 0.6786,0.47754 0.6786,1.58341 0,0.87088 0.20358,1.58341 0.45241,1.58341 0.24882,0 0.4524,0.40716 0.4524,0.9048 0,0.49765 0.16558,0.90481 0.36796,0.90481 0.20238,0 0.64754,0.71253 0.98925,1.58341 0.3417,0.87087 0.8014,1.5834 1.02155,1.5834 0.65486,0 1.69286,1.23772 1.69286,2.01858 0,0.67958 2.81026,3.86265 3.41025,3.86265 0.35816,0 1.56617,1.21224 1.56617,1.57166 0,0.58429 2.25333,2.49996 2.94062,2.49996 0.80306,0 2.94061,1.95818 2.94061,2.69386 0,0.26013 0.40717,0.47296 0.90481,0.47296 0.49764,0 0.9048,0.20358 0.9048,0.4524 0,0.24882 0.50896,0.45241 1.13101,0.45241 0.62205,0 1.131,0.20358 1.131,0.4524 0,0.24882 0.71254,0.4524 1.58341,0.4524 0.87088,0 1.58341,0.20358 1.58341,0.4524 0,0.24882 0.40716,0.4524 0.90481,0.4524 0.50266,0 0.9048,0.30161 0.9048,0.67861 0,0.50267 0.5278,0.6786 2.03581,0.6786 1.1197,0 2.03581,0.19428 2.03581,0.43173 0,0.23746 1.37417,0.5107 3.05372,0.60722 4.47624,0.25722 14.79178,-0.18732 14.96697,-0.645 z"
       transform="translate(-102.09214,517.78214)"
       id="path6968"
       style="fill:#ffffff;fill-opacity:0.98818898" />
    <path
       d="m 422.67362,336.34373 c -0.37323,-0.24647 -2.05278,-0.45125 -3.73232,-0.45506 -1.72959,-0.004 -3.05372,-0.20309 -3.05372,-0.45933 0,-0.24882 -0.81432,-0.4524 -1.8096,-0.4524 -0.99529,0 -1.80961,-0.20358 -1.80961,-0.45241 0,-0.24882 -0.71254,-0.4524 -1.58341,-0.4524 -1.10587,0 -1.58341,-0.20466 -1.58341,-0.6786 0,-0.4524 -0.4524,-0.6786 -1.35721,-0.6786 -0.74646,0 -1.3572,-0.20359 -1.3572,-0.45241 0,-0.24882 -0.71254,-0.4524 -1.58341,-0.4524 -0.87088,0 -1.58341,-0.20358 -1.58341,-0.4524 0,-0.24882 -0.50895,-0.4524 -1.131,-0.4524 -0.62206,0 -1.13101,-0.20358 -1.13101,-0.45241 0,-0.24882 -0.40716,-0.4524 -0.90481,-0.4524 -0.49764,0 -0.9048,-0.20358 -0.9048,-0.4524 0,-0.24882 -0.40716,-0.4524 -0.9048,-0.4524 -0.50267,0 -0.90481,-0.30161 -0.90481,-0.67861 0,-0.42224 -0.42727,-0.6786 -1.131,-0.6786 -0.62206,0 -1.13101,-0.20358 -1.13101,-0.4524 0,-0.24882 -0.40716,-0.4524 -0.9048,-0.4524 -0.49765,0 -0.90481,-0.20359 -0.90481,-0.45241 0,-0.24882 -0.46401,-0.4524 -1.03113,-0.4524 -0.56713,0 -1.3246,-0.40716 -1.68328,-0.9048 -0.35868,-0.49765 -0.82051,-0.90481 -1.02628,-0.90481 -0.20577,0 -0.84582,-0.50895 -1.42231,-1.131 -0.5765,-0.62206 -1.39036,-1.13101 -1.80858,-1.13101 -0.83449,0 -2.98127,-1.93981 -2.98127,-2.69385 0,-0.26013 -0.30537,-0.47297 -0.6786,-0.47297 -0.37324,0 -0.67861,-0.18986 -0.67861,-0.42191 0,-0.23206 -0.40716,-0.55114 -0.9048,-0.70909 -0.49764,-0.15795 -0.90481,-0.49401 -0.90481,-0.74681 0,-0.67342 -2.94312,-3.41904 -4.03721,-3.76629 -0.51657,-0.16395 -0.93921,-0.6466 -0.93921,-1.07254 0,-0.42595 -0.40716,-1.06791 -0.90481,-1.4266 -0.49764,-0.35868 -0.9048,-0.91257 -0.9048,-1.23087 0,-0.31831 -0.21812,-0.57874 -0.48472,-0.57874 -0.68147,0 -1.77729,-1.17371 -1.77729,-1.90362 0,-0.33607 -0.40716,-0.90451 -0.90481,-1.26319 -0.49764,-0.35868 -0.9048,-0.91258 -0.9048,-1.23088 0,-0.3183 -0.20358,-0.57873 -0.4524,-0.57873 -0.24882,0 -0.45241,-0.40716 -0.45241,-0.90481 0,-0.49764 -0.21812,-0.9048 -0.48471,-0.9048 -0.79837,0 -1.7773,-1.22811 -1.7773,-2.2297 0,-0.51541 -0.20358,-0.93712 -0.4524,-0.93712 -0.24882,0 -0.4524,-0.31991 -0.4524,-0.71091 0,-0.81251 -1.05652,-2.0035 -1.7773,-2.0035 -0.26659,0 -0.48471,-0.50895 -0.48471,-1.13101 0,-0.62205 -0.20358,-1.131 -0.45241,-1.131 -0.24882,0 -0.4524,-0.61074 -0.4524,-1.35721 0,-0.74646 -0.20358,-1.35721 -0.4524,-1.35721 -0.24882,0 -0.4524,-0.50895 -0.4524,-1.131 0,-0.62205 -0.20358,-1.13101 -0.4524,-1.13101 -0.24883,0 -0.45241,-0.40716 -0.45241,-0.9048 0,-0.49764 -0.20358,-0.90481 -0.4524,-0.90481 -0.24882,0 -0.4524,-0.61713 -0.4524,-1.3714 0,-0.80169 -0.28191,-1.47959 -0.6786,-1.63181 -0.37324,-0.14323 -0.67861,-0.64579 -0.67861,-1.11681 0,-0.47102 -0.20358,-0.8564 -0.4524,-0.8564 -0.24882,0 -0.4524,-1.1197 -0.4524,-2.48821 0,-1.36852 -0.20358,-2.48822 -0.45241,-2.48822 -0.24882,0 -0.4524,-1.11969 -0.4524,-2.48821 0,-1.36852 -0.20358,-2.48821 -0.4524,-2.48821 -0.25815,0 -0.4524,-1.34831 -0.4524,-3.14012 0,-1.72706 -0.20358,-3.26593 -0.4524,-3.41971 -0.26767,-0.16543 -0.45241,-2.93642 -0.45241,-6.78604 0,-3.84962 0.18474,-6.6206 0.45241,-6.78603 0.24882,-0.15378 0.4524,-1.79445 0.4524,-3.64592 0,-1.94261 0.19133,-3.36632 0.4524,-3.36632 0.24882,0 0.4524,-1.11969 0.4524,-2.48821 0,-1.36852 0.20358,-2.48821 0.4524,-2.48821 0.24883,0 0.45241,-0.91612 0.45241,-2.03581 0,-1.1197 0.20358,-2.03581 0.4524,-2.03581 0.24882,0 0.4524,-0.61075 0.4524,-1.35721 0,-0.90481 0.2262,-1.35721 0.67861,-1.35721 0.47394,0 0.6786,-0.47754 0.6786,-1.58341 0,-0.87087 0.20358,-1.5834 0.4524,-1.5834 0.24882,0 0.4524,-0.40717 0.4524,-0.90481 0,-0.49764 0.20358,-0.9048 0.45241,-0.9048 0.24882,0 0.4524,-0.50896 0.4524,-1.13101 0,-0.62205 0.20358,-1.131 0.4524,-1.131 0.24882,0 0.4524,-0.56243 0.4524,-1.24983 0,-0.80506 0.40249,-1.55209 1.13101,-2.09918 0.62205,-0.46715 1.131,-1.228 1.131,-1.69079 0,-0.46279 0.20358,-0.84143 0.45241,-0.84143 0.24882,0 0.4524,-0.40717 0.4524,-0.90481 0,-0.49764 0.20358,-0.9048 0.4524,-0.9048 0.24882,0 0.4524,-0.42171 0.4524,-0.93712 0,-0.93918 0.96476,-2.2297 1.66686,-2.2297 0.20586,0 0.66306,-0.66164 1.01601,-1.47031 0.35295,-0.80867 1.01339,-1.79956 1.46765,-2.20197 0.45425,-0.40242 0.82591,-0.97681 0.82591,-1.27642 0,-0.67543 1.12394,-1.83733 1.77729,-1.83733 0.2666,0 0.48472,-0.20894 0.48472,-0.46431 0,-0.60478 3.90734,-4.51212 4.51212,-4.51212 0.25537,0 0.4643,-0.21954 0.4643,-0.48787 0,-0.26833 0.81433,-1.27027 1.80961,-2.22654 0.99529,-0.95627 1.80961,-1.95822 1.80961,-2.22655 0,-0.26833 0.42728,-0.48787 0.9495,-0.48787 0.52222,0 1.52002,-0.61074 2.21732,-1.3572 0.6973,-0.74647 1.49151,-1.35721 1.76492,-1.35721 0.2734,0 0.49709,-0.20358 0.49709,-0.4524 0,-0.24882 0.40716,-0.45241 0.90481,-0.45241 0.49764,0 0.9048,-0.21812 0.9048,-0.48471 0,-0.76588 1.21203,-1.7773 2.12982,-1.7773 0.46049,0 1.13072,-0.40716 1.4894,-0.9048 0.38296,-0.53133 1.17113,-0.90481 1.90948,-0.90481 0.69153,0 1.25733,-0.20358 1.25733,-0.4524 0,-0.24882 0.31177,-0.4524 0.69281,-0.4524 0.38104,0 0.80998,-0.30537 0.9532,-0.6786 0.14323,-0.37324 0.544,-0.67861 0.89061,-0.67861 0.34661,0 0.6302,-0.20358 0.6302,-0.4524 0,-0.24882 0.61074,-0.4524 1.35721,-0.4524 0.74646,0 1.3572,-0.20358 1.3572,-0.4524 0,-0.24883 0.50896,-0.45241 1.13101,-0.45241 0.62205,0 1.13101,-0.20358 1.13101,-0.4524 0,-0.24882 0.71253,-0.4524 1.5834,-0.4524 0.87088,0 1.58341,-0.20358 1.58341,-0.4524 0,-0.24882 0.61074,-0.45241 1.35721,-0.45241 0.9048,0 1.35721,-0.2262 1.35721,-0.6786 0,-0.47394 0.47753,-0.6786 1.5834,-0.6786 0.87088,0 1.58341,-0.20358 1.58341,-0.4524 0,-0.24883 0.91612,-0.45241 2.03581,-0.45241 1.1197,0 2.03581,-0.20358 2.03581,-0.4524 0,-0.26917 1.70405,-0.4524 4.20734,-0.4524 2.35429,0 4.41806,-0.21072 4.68577,-0.47843 0.73075,-0.73074 20.96544,0.19761 20.96544,0.96187 0,0.23175 1.1197,0.42136 2.48822,0.42136 1.36851,0 2.48821,0.20358 2.48821,0.45241 0,0.24882 0.61074,0.4524 1.35721,0.4524 0.9048,0 1.3572,0.2262 1.3572,0.6786 0,0.47395 0.47754,0.6786 1.58341,0.6786 0.87087,0 1.58341,0.20359 1.58341,0.45241 0,0.24882 0.30858,0.4524 0.68573,0.4524 1.09697,0 4.29069,1.09221 4.29069,1.46736 0,0.18823 0.40717,0.34225 0.90481,0.34225 0.49764,0 0.9048,0.20358 0.9048,0.4524 0,0.24882 0.50895,0.4524 1.13101,0.4524 0.70374,0 1.131,0.25636 1.131,0.67861 0,0.377 0.40214,0.6786 0.90481,0.6786 0.49764,0 0.9048,0.20358 0.9048,0.4524 0,0.24882 0.50896,0.4524 1.13101,0.4524 0.62205,0 1.131,0.20359 1.131,0.45241 0,0.24882 0.36222,0.4524 0.80494,0.4524 0.44271,0 1.09839,0.40716 1.45708,0.9048 0.35868,0.49765 1.11615,0.90481 1.68328,0.90481 0.56712,0 1.03113,0.21812 1.03113,0.48471 0,0.72078 1.19098,1.7773 2.00349,1.7773 0.39101,0 0.71092,0.20358 0.71092,0.4524 0,0.24882 0.21284,0.4524 0.47297,0.4524 0.61411,0 2.69385,2.07975 2.69385,2.69385 0,0.26013 0.40716,0.47297 0.9048,0.47297 0.49765,0 0.90481,0.20358 0.90481,0.4524 0,0.24882 0.30537,0.4524 0.6786,0.4524 0.377,0 0.67861,0.40214 0.67861,0.90481 0,0.6032 0.3016,0.9048 0.9048,0.9048 0.49764,0 0.9048,0.21284 0.9048,0.47297 0,0.61411 2.07975,2.69385 2.69386,2.69385 0.26013,0 0.47296,0.40716 0.47296,0.9048 0,0.49765 0.20358,0.90481 0.4524,0.90481 0.24882,0 0.45241,0.21283 0.45241,0.47297 0,0.6141 2.07974,2.69384 2.69385,2.69384 0.26013,0 0.47296,0.40717 0.47296,0.90481 0,0.49764 0.20358,0.9048 0.4524,0.9048 0.24882,0 0.45241,0.21284 0.45241,0.47297 0,0.26013 0.49316,0.96612 1.0959,1.56887 0.60275,0.60275 1.22721,1.50961 1.38769,2.01525 0.16049,0.50564 0.58344,0.91934 0.93991,0.91934 0.38972,0 0.64812,0.45091 0.64812,1.131 0,0.62206 0.20358,1.13101 0.4524,1.13101 0.24882,0 0.4524,0.40716 0.4524,0.90481 0,0.49764 0.20358,0.9048 0.4524,0.9048 0.24882,0 0.45241,0.30537 0.45241,0.6786 0,0.37324 0.20358,0.67861 0.4524,0.67861 0.24882,0 0.4524,0.40716 0.4524,0.9048 0,0.49764 0.20358,0.90481 0.4524,0.90481 0.24882,0 0.4524,0.40716 0.4524,0.9048 0,0.50267 0.30161,0.90481 0.67861,0.90481 0.47394,0 0.6786,0.47753 0.6786,1.5834 0,0.87088 0.20358,1.58341 0.4524,1.58341 0.24883,0 0.45241,0.40716 0.45241,0.90481 0,0.49764 0.20358,0.9048 0.4524,0.9048 0.24882,0 0.4524,0.35914 0.4524,0.79809 0,0.43895 0.40716,1.91204 0.90481,3.27353 0.49764,1.36149 0.9048,3.24813 0.9048,4.19254 0,1.10896 0.24033,1.80931 0.6786,1.97749 0.37324,0.14323 0.67861,0.55288 0.67861,0.91034 0,0.55016 -1.26749,0.61245 -8.25634,0.40572 -4.54099,-0.13433 -13.29498,-0.35674 -19.4533,-0.49425 -10.71642,-0.23931 -11.19696,-0.28792 -11.19696,-1.13272 0,-0.48548 -0.20358,-0.88269 -0.4524,-0.88269 -0.24882,0 -0.4524,-0.50896 -0.4524,-1.13101 0,-0.62205 -0.20359,-1.13101 -0.45241,-1.13101 -0.24882,0 -0.4524,-0.40716 -0.4524,-0.9048 0,-0.49764 -0.21812,-0.9048 -0.48472,-0.9048 -0.72077,0 -1.77729,-1.19099 -1.77729,-2.0035 0,-0.39101 -0.20358,-0.71092 -0.4524,-0.71092 -0.24882,0 -0.45241,-0.21283 -0.45241,-0.47296 0,-0.50445 -2.03182,-2.69385 -2.49996,-2.69385 -0.38441,0 -1.57166,-1.21948 -1.57166,-1.61433 0,-0.50274 -1.50795,-1.52214 -2.27524,-1.5381 -0.3805,-0.008 -0.98529,-0.42155 -1.34397,-0.91919 -0.35869,-0.49765 -1.01437,-0.90481 -1.45708,-0.90481 -0.44272,0 -0.80494,-0.21812 -0.80494,-0.48472 0,-0.79836 -1.22811,-1.77729 -2.22969,-1.77729 -0.51542,0 -0.93712,-0.20358 -0.93712,-0.4524 0,-0.24882 -0.61074,-0.45241 -1.35721,-0.45241 -0.74646,0 -1.35721,-0.20358 -1.35721,-0.4524 0,-0.24882 -0.50895,-0.4524 -1.131,-0.4524 -0.62205,0 -1.13101,-0.20358 -1.13101,-0.4524 0,-0.24882 -0.58896,-0.4524 -1.3088,-0.4524 -0.74605,0 -1.42078,-0.29179 -1.56921,-0.67861 -0.18804,-0.49003 -0.95579,-0.6786 -2.76282,-0.6786 -1.45686,0 -2.50241,-0.19983 -2.50241,-0.47826 0,-0.32207 -1.80983,-0.4061 -5.54193,-0.25731 -7.65301,0.30511 -10.29215,0.67894 -10.29215,1.45783 0,0.42405 -0.52593,0.63495 -1.58341,0.63495 -0.87087,0 -1.5834,0.20358 -1.5834,0.4524 0,0.24882 -0.71254,0.4524 -1.58341,0.4524 -0.87088,0 -1.58341,0.20358 -1.58341,0.4524 0,0.24882 -0.40716,0.4524 -0.90481,0.4524 -0.49764,0 -0.9048,0.20359 -0.9048,0.45241 0,0.24882 -0.50895,0.4524 -1.13101,0.4524 -0.62205,0 -1.131,0.20358 -1.131,0.4524 0,0.24882 -0.27686,0.4524 -0.61524,0.4524 -0.33838,0 -0.99743,0.50896 -1.46458,1.13101 -0.46714,0.62205 -1.21745,1.13101 -1.66734,1.13101 -0.75332,0 -3.03888,1.87139 -3.03888,2.48821 0,0.34814 -2.14007,2.48821 -2.48821,2.48821 -0.5888,0 -2.48821,2.26882 -2.48821,2.97214 0,0.41319 -0.68392,1.38945 -1.51981,2.16947 -0.8359,0.78002 -1.65053,1.96383 -1.81029,2.63069 -0.15976,0.66686 -0.59554,1.51754 -0.9684,1.8904 -0.37286,0.37286 -0.67793,0.99784 -0.67793,1.38884 0,0.39101 -0.20358,0.71092 -0.4524,0.71092 -0.24882,0 -0.4524,0.71253 -0.4524,1.58341 0,1.10587 -0.20466,1.58341 -0.6786,1.58341 -0.47395,0 -0.67861,0.47753 -0.67861,1.5834 0,0.87088 -0.20358,1.58341 -0.4524,1.58341 -0.27007,0 -0.4524,1.74413 -0.4524,4.32756 0,2.38017 -0.22244,4.7432 -0.49432,5.2512 -0.35748,0.66796 -0.35748,1.06046 0,1.41795 0.28662,0.28661 0.49432,2.26214 0.49432,4.70165 0,2.50329 0.18323,4.20734 0.4524,4.20734 0.24882,0 0.4524,0.698 0.4524,1.5511 0,0.8531 0.30537,1.85646 0.67861,2.22969 0.37323,0.37323 0.6786,1.10031 0.6786,1.61573 0,0.51541 0.20358,0.93711 0.4524,0.93711 0.24882,0 0.4524,0.40717 0.4524,0.90481 0,0.49764 0.20359,0.9048 0.45241,0.9048 0.24882,0 0.4524,0.50896 0.4524,1.13101 0,0.62205 0.20358,1.13101 0.4524,1.13101 0.24882,0 0.4524,0.40716 0.4524,0.9048 0,0.50267 0.30161,0.9048 0.67861,0.9048 0.377,0 0.6786,0.40214 0.6786,0.90481 0,0.49764 0.20358,0.9048 0.4524,0.9048 0.24882,0 0.4524,0.21037 0.4524,0.46748 0,0.60823 2.99592,3.60414 3.60414,3.60414 0.25712,0 0.46749,0.40717 0.46749,0.90481 0,0.49764 0.19679,0.9048 0.43732,0.9048 0.24052,0 1.14985,0.71254 2.02073,1.58341 0.87087,0.87088 1.79377,1.58341 2.05089,1.58341 0.25711,0 0.46748,0.20358 0.46748,0.4524 0,0.24882 0.40716,0.4524 0.90481,0.4524 0.49764,0 0.9048,0.23204 0.9048,0.51563 0,0.69525 1.39734,1.71423 2.37511,1.732 0.43544,0.008 0.79171,0.21797 0.79171,0.46679 0,0.24882 0.40716,0.4524 0.9048,0.4524 0.49764,0 0.9048,0.20358 0.9048,0.4524 0,0.24882 0.42171,0.4524 0.93712,0.4524 0.51542,0 1.2425,0.30538 1.61573,0.67861 0.37323,0.37323 1.05921,0.6786 1.52439,0.6786 0.46519,0 0.97161,0.20358 1.12539,0.4524 0.15378,0.24883 1.0412,0.45241 1.97203,0.45241 0.93084,0 1.90534,0.21291 2.16556,0.47313 0.30879,0.30879 3.20803,0.40385 8.34682,0.27368 8.18404,-0.20731 11.54884,-0.55771 11.97485,-1.247 0.13754,-0.22254 0.747,-0.40462 1.35437,-0.40462 0.68,0 1.10431,-0.26074 1.10431,-0.6786 0,-0.47395 0.47754,-0.67861 1.58341,-0.67861 0.87087,0 1.5834,-0.20358 1.5834,-0.4524 0,-0.24882 0.40717,-0.4524 0.90481,-0.4524 0.49764,0 0.9048,-0.20358 0.9048,-0.4524 0,-0.24882 0.35627,-0.45888 0.79171,-0.46679 0.97777,-0.0178 2.37511,-1.03675 2.37511,-1.732 0,-0.28359 0.40716,-0.51563 0.9048,-0.51563 0.49765,0 0.90481,-0.20358 0.90481,-0.4524 0,-0.24882 0.21037,-0.4524 0.46748,-0.4524 0.25712,0 1.17323,-0.70575 2.03581,-1.56833 0.86258,-0.86258 1.56833,-1.77869 1.56833,-2.03581 0,-0.25711 0.20894,-0.46748 0.46431,-0.46748 0.84748,0 4.51211,-4.03206 4.51211,-4.96452 0,-0.50419 0.21813,-0.91671 0.48472,-0.91671 0.72078,0 1.7773,-1.19099 1.7773,-2.0035 0,-0.391 0.20358,-0.71091 0.4524,-0.71091 0.24882,0 0.4524,-0.42171 0.4524,-0.93712 0,-2.23206 -0.0213,-2.2297 20.09959,-2.2297 18.5054,0 18.80701,0.0145 18.80701,0.9048 0,0.49765 -0.28573,0.90481 -0.63495,0.90481 -0.42045,0 -0.72017,0.72591 -0.88727,2.14891 -0.51736,4.40596 -0.84586,5.99433 -1.23972,5.99433 -0.22268,0 -0.40488,0.40716 -0.40488,0.9048 0,0.49765 -0.20358,0.90481 -0.4524,0.90481 -0.24882,0 -0.4524,0.40716 -0.4524,0.9048 0,0.49765 -0.20358,0.90481 -0.45241,0.90481 -0.24882,0 -0.4524,0.50895 -0.4524,1.131 0,0.70374 -0.25636,1.13101 -0.6786,1.13101 -0.4524,0 -0.67861,0.4524 -0.67861,1.35721 0,0.74646 -0.16268,1.3572 -0.36151,1.3572 -0.19884,0 -0.61918,0.71254 -0.93409,1.58341 -0.31492,0.87088 -0.76297,1.58341 -0.99569,1.58341 -0.23272,0 -0.42312,0.40716 -0.42312,0.9048 0,0.49765 -0.20358,0.90481 -0.4524,0.90481 -0.24882,0 -0.4524,0.21217 -0.4524,0.4715 0,0.49308 -0.45208,1.10795 -2.14891,2.92273 -0.55985,0.59877 -1.01791,1.46014 -1.01791,1.91416 0,0.45402 -0.40716,1.11896 -0.9048,1.47764 -0.49765,0.35869 -0.90481,1.01437 -0.90481,1.45708 0,0.44271 -0.29821,0.80493 -0.66269,0.80493 -0.36447,0 -0.89949,0.44249 -1.18892,0.98329 -0.57928,1.08239 -2.46963,3.08833 -2.91036,3.08833 -0.35942,0 -1.57166,1.20801 -1.57166,1.56618 0,0.59677 -3.06134,3.28773 -4.42893,3.89308 -0.79876,0.35357 -1.4523,0.80599 -1.4523,1.00538 0,0.57958 -2.16364,2.582 -2.80695,2.5978 -0.68429,0.0168 -2.16948,1.06976 -2.16948,1.53811 0,0.65662 -1.32277,1.61432 -2.22969,1.61432 -0.51542,0 -0.93712,0.20358 -0.93712,0.4524 0,0.24882 -0.40716,0.4524 -0.90481,0.4524 -0.49764,0 -0.9048,0.20358 -0.9048,0.4524 0,0.24882 -0.37744,0.45241 -0.83875,0.45241 -0.4613,0 -1.38791,0.50895 -2.05911,1.131 -0.67121,0.62205 -1.41347,1.13101 -1.64947,1.13101 -0.236,0 -0.4291,0.20358 -0.4291,0.4524 0,0.24882 -0.50895,0.4524 -1.131,0.4524 -0.62206,0 -1.13101,0.20358 -1.13101,0.4524 0,0.24883 -0.61074,0.45241 -1.3572,0.45241 -0.74647,0 -1.35721,0.20358 -1.35721,0.4524 0,0.24882 -0.59873,0.4524 -1.33051,0.4524 -0.73178,0 -1.45633,0.20358 -1.61011,0.4524 -0.15378,0.24882 -0.87833,0.45241 -1.61011,0.45241 -0.88107,0 -1.3305,0.22922 -1.3305,0.6786 0,0.47394 -0.47754,0.6786 -1.58341,0.6786 -0.87087,0 -1.58341,0.20358 -1.58341,0.4524 0,0.24883 -0.71253,0.45241 -1.58341,0.45241 -0.87087,0 -1.5834,0.18807 -1.5834,0.41795 0,0.88435 -25.87231,1.78873 -27.14414,0.94884 l 0,0 z"
       transform="translate(-102.09214,517.78214)"
       id="path6970"
       style="fill:#ffffff;fill-opacity:0.98818898" />
    <path
       d="m 131.8364,327.86585 c 0,-5.60387 -0.18691,-10.18886 -0.41534,-10.18886 -0.22843,0 -3.66953,2.62727 -7.64688,5.83836 -12.42602,10.03208 -22.04601,13.16725 -37.72434,12.29442 -22.748264,-1.26643 -44.109089,-12.17789 -57.531107,-29.38784 -6.519524,-8.35945 -9.681757,-14.25369 -13.005631,-24.24183 -4.476638,-13.45217 -5.444968,-25.26802 -3.149504,-38.43118 5.032106,-28.85623 25.423196,-52.27886 53.81897,-61.82022 7.236455,-2.43154 9.855387,-2.85116 20.171813,-3.23201 9.112979,-0.33643 13.565037,-0.0913 19.244709,1.05953 16.44749,3.33269 30.677,11.03339 42.78704,23.1554 9.16329,9.17236 14.67137,18.13006 19.39624,31.5438 l 3.44632,9.78398 0,46.34803 0,46.34802 -15.10038,0.008 c -8.30521,0.004 -17.16847,0.25601 -19.69614,0.55962 l -4.59577,0.55202 0,-10.18885 0,-2.7e-4 z m -29.18452,-32.79368 c 17.89196,-5.58518 28.6664,-22.21333 27.1746,-41.93843 -0.9762,-12.90767 -9.2406,-25.02111 -21.66031,-31.74834 l -5.65515,-3.06316 -11.817689,-6.9e-4 c -11.195196,-6.5e-4 -12.082813,0.12951 -16.850936,2.4709 -10.918973,5.36179 -19.504857,16.35913 -22.188139,28.41997 -4.28983,19.28196 7.324705,39.87506 25.828594,45.79529 6.656686,2.12976 18.456068,2.15999 25.16903,0.0644 l 0,3e-5 z"
       transform="translate(1686.509,489.49024)"
       id="path6972"
       style="fill:#ffffff;fill-opacity:0.98818898" />
    <path
       d="m 241.69714,335.97813 c -10.65248,-2.96984 -26.29985,-11.32845 -33.46232,-17.87511 -11.58266,-10.58682 -21.30003,-25.71157 -25.3463,-39.45063 -1.38683,-4.70895 -1.55308,-11.87876 -1.82012,-78.49575 l -0.29387,-73.31344 11.20285,-0.005 c 6.16156,-0.002 15.03927,-0.25858 19.72824,-0.56909 l 8.52539,-0.56456 0.22845,36.82744 0.22845,36.82744 7.00308,-5.75633 c 15.38352,-12.64481 30.61492,-15.88673 52.08537,-11.08608 24.07492,5.38299 45.90747,23.96405 55.08343,46.87993 4.59796,11.48287 5.68009,17.42246 5.63723,30.9419 -0.0341,10.76175 -0.32948,13.21557 -2.42353,20.13384 -4.35644,14.39269 -10.32126,24.41458 -20.58613,34.5881 -11.03398,10.93577 -24.04056,18.34894 -37.44612,21.34259 -9.28595,2.07368 -30.21239,1.84134 -38.3441,-0.42572 z m 31.74588,-40.9296 c 10.38883,-3.23337 18.93376,-10.69428 23.38596,-20.41916 10.01417,-21.87381 -0.61609,-47.63219 -22.68873,-54.97749 -6.37122,-2.12021 -17.23974,-2.51214 -23.43116,-0.84497 -22.18555,5.97395 -34.24015,28.46412 -27.38273,51.08772 3.26177,10.76105 14.58155,22.16167 25.37385,25.55504 5.45145,1.71408 18.63324,1.50037 24.74281,-0.40114 z"
       transform="translate(1686.509,489.49024)"
       id="path6974"
       style="fill:#ffffff;fill-opacity:0.98818898" />
    <path
       d="m 424.65247,336.34342 c -27.27346,-2.57718 -52.99676,-21.0821 -64.46521,-46.37523 -7.85192,-17.31704 -8.97306,-39.46372 -2.90148,-57.31491 16.11706,-47.38612 70.56829,-68.32552 113.32437,-43.57926 16.51609,9.55914 28.39431,23.835 35.62444,42.8153 4.39179,11.5292 6.01081,10.50462 -16.59915,10.50462 l -19.49164,0 -2.75243,-4.59577 c -6.58182,-10.98972 -15.74681,-17.01635 -29.00621,-19.07361 -16.5145,-2.56232 -33.64211,6.37929 -41.36521,21.59503 -2.74476,5.4076 -3.015,6.65327 -3.3094,15.25453 -0.49618,14.49629 2.73696,23.1355 11.73631,31.36041 7.18766,6.56911 19.0184,11.50643 27.48684,11.47107 4.73232,-0.0198 13.56134,-2.34062 18.58124,-4.8844 5.76579,-2.92174 13.26645,-10.01272 16.2948,-15.40476 l 2.36272,-4.20689 19.86781,-8.7e-4 19.86782,-8.8e-4 -1.3374,4.59577 c -2.08186,7.15405 -9.45388,21.48247 -14.47922,28.14214 -8.06571,10.68879 -25.25836,22.34635 -39.25292,26.61561 -7.11236,2.16975 -22.84348,3.77596 -30.18608,3.08213 l 0,-3e-5 z"
       transform="translate(1686.509,489.49024)"
       id="path6976"
       style="fill:#ffffff;fill-opacity:0.98818898" />
  </g>
</svg>
